<svg width="17" height="17" viewBox="0 0 17 17" fill="none" xmlns="http://www.w3.org/2000/svg">
<path d="M2.05511 6.28591L8.00511 12.2536C8.07594 12.3245 8.15268 12.3745 8.23532 12.4038C8.31796 12.4335 8.4065 12.4484 8.50094 12.4484C8.59539 12.4484 8.68393 12.4335 8.76657 12.4038C8.84921 12.3745 8.92594 12.3245 8.99678 12.2536L14.9645 6.28591C15.1298 6.12063 15.2124 5.91404 15.2124 5.66612C15.2124 5.4182 15.1239 5.2057 14.9468 5.02862C14.7697 4.85154 14.5631 4.76299 14.327 4.76299C14.0909 4.76299 13.8843 4.85154 13.7072 5.02862L8.50094 10.2349L3.29469 5.02862C3.12942 4.86334 2.92589 4.7807 2.68411 4.7807C2.44186 4.7807 2.23219 4.86924 2.05511 5.04633C1.87803 5.22341 1.78949 5.43001 1.78949 5.66612C1.78949 5.90223 1.87803 6.10883 2.05511 6.28591Z" fill="#373737"/>
</svg>
