<svg width="18" height="19" viewBox="0 0 18 19" fill="none" xmlns="http://www.w3.org/2000/svg">
<path d="M5.025 5.3625C5.175 5.5125 5.247 5.69375 5.241 5.90625C5.2345 6.11875 5.15625 6.3 5.00625 6.45L2.8875 8.56875H16.25C16.4625 8.56875 16.6407 8.64075 16.7847 8.78475C16.9282 8.92825 17 9.10635 17 9.31885C17 9.53135 16.9282 9.7095 16.7847 9.8535C16.6407 9.997 16.4625 10.0688 16.25 10.0688H2.8875L5.025 12.2063C5.175 12.3563 5.25 12.5345 5.25 12.741C5.25 12.947 5.175 13.125 5.025 13.275C4.875 13.425 4.69675 13.5 4.49025 13.5C4.28425 13.5 4.10625 13.425 3.95625 13.275L0.525003 9.84375C0.450002 9.76875 0.39675 9.6875 0.365251 9.6C0.33425 9.5125 0.318749 9.41875 0.318749 9.31875C0.318749 9.21875 0.33425 9.125 0.365251 9.0375C0.39675 8.95 0.450002 8.86875 0.525003 8.79375L3.975 5.34375C4.1125 5.20625 4.28425 5.1375 4.49025 5.1375C4.69675 5.1375 4.875 5.2125 5.025 5.3625Z" fill="#373737"/>
</svg>
