<svg preserveAspectRatio="none" width="14" height="12" viewBox="0 0 14 12" fill="none" xmlns="http://www.w3.org/2000/svg">
<path d="M5.03734 10.6566L0.581093 6.22406C0.555393 6.19851 0.534998 6.16812 0.521081 6.13466C0.507164 6.10119 0.5 6.06531 0.5 6.02906C0.5 5.99282 0.507164 5.95693 0.521081 5.92347C0.534998 5.89 0.555393 5.85962 0.581093 5.83406L1.70609 4.70781C1.81359 4.60031 1.98734 4.60031 2.09484 4.70781L5.02859 7.62406C5.13609 7.73156 5.31109 7.73031 5.41859 7.62281L11.9011 1.07781C12.0086 0.969063 12.1836 0.969063 12.2923 1.07656L13.4186 2.20281C13.5261 2.31031 13.5261 2.48406 13.4198 2.59156L6.35734 9.71781L6.35859 9.71906L5.42734 10.6553C5.31984 10.7628 5.14484 10.7628 5.03734 10.6566Z" fill="#fff" stroke="#fff" stroke-width="0.5625" stroke-miterlimit="10"/>
</svg>
