<svg width="9" height="8" viewBox="0 0 9 8" fill="none" xmlns="http://www.w3.org/2000/svg">
<g id="ph:triangle-fill">
<path id="Vector" d="M1.78115 1.85864C1.83857 1.75863 1.92143 1.6756 2.02132 1.61797C2.12121 1.56034 2.23458 1.53017 2.3499 1.53052L7.1624 1.53052C7.27772 1.53009 7.39111 1.56018 7.49104 1.61775C7.59097 1.67531 7.67389 1.7583 7.73138 1.85827C7.78887 1.95825 7.81887 2.07166 7.81835 2.18698C7.81783 2.30231 7.7868 2.41544 7.72841 2.51489L5.3249 6.67114C5.26736 6.77111 5.18449 6.85413 5.08464 6.91187C4.98479 6.9696 4.87149 7 4.75615 7C4.64081 7 4.52751 6.9696 4.42766 6.91187C4.32781 6.85413 4.24494 6.77111 4.1874 6.67114L1.78388 2.51489C1.72505 2.41565 1.69379 2.30251 1.6933 2.18714C1.69282 2.07178 1.72315 1.95837 1.78115 1.85864Z" fill="#373737"/>
</g>
</svg>
