<svg width="100" height="100" viewBox="0 0 100 100" fill="none" xmlns="http://www.w3.org/2000/svg">
<path d="M88.6692 16.7247L51.4696 1.23239C50.5396 0.922538 49.4548 0.922538 48.5248 1.23239L11.325 16.7247C9.92999 17.3444 9 18.7388 9 20.288V39.034C9 64.9062 24.6549 87.9896 48.5248 97.7498C49.4548 98.0596 50.5394 98.0596 51.3144 97.7498C75.1842 87.9896 90.8392 64.7512 90.8392 39.034V20.288C90.9942 18.7388 90.0642 17.3444 88.6692 16.7247ZM83.3994 39.034C83.3994 61.033 70.5346 81.1732 50.0748 90.1586C30.0798 81.328 16.7499 61.4978 16.7499 39.034V22.767L50.0748 8.97856L83.3994 22.767V39.034ZM45.8894 51.7376L62.1644 35.4706C63.7144 33.9214 66.0392 33.9214 67.5892 35.4706C69.1392 37.0198 69.1392 39.3438 67.5892 40.893L48.6794 59.7936C47.1294 61.3428 44.8046 61.3428 43.2546 59.7936L32.7146 49.2586C31.1646 47.7094 31.1646 45.3856 32.7146 43.8364C34.2646 42.2872 36.5894 42.2872 38.1394 43.8364L45.8894 51.7376Z" fill="#69AEFF"/>
</svg>
