<svg width="48" height="40" viewBox="0 0 48 40" fill="none" xmlns="http://www.w3.org/2000/svg">
<path d="M41 21V35C41 36.0609 40.5786 37.0783 39.8284 37.8284C39.0783 38.5786 38.0609 39 37 39H31M41 21C28.116 21 20.79 24.97 16.89 29.486M41 21V18M31 39H9C7.93913 39 6.92172 38.5786 6.17157 37.8284C5.42143 37.0783 5 36.0609 5 35V29M31 39C27.592 33.464 22.146 30.704 16.89 29.486M16.89 29.486C12.274 28.414 7.806 28.532 5 29M5 29V7C5 5.93913 5.42143 4.92172 6.17157 4.17157C6.92172 3.42143 7.93913 3 9 3H25M37 1V7M37 7V13M37 7H43M37 7H31M16 11C15 11 13 11.6 13 14C13 16.4 15 17 16 17C17 17 19 16.4 19 14C19 11.6 17 11 16 11Z" stroke="#B6B6B6" stroke-width="2" stroke-linecap="round" stroke-linejoin="round"/>
</svg>
