<svg width="100" height="100" viewBox="0 0 100 100" fill="none" xmlns="http://www.w3.org/2000/svg">
<path d="M90.942 68.9488L84.742 65.3858C82.882 64.3012 80.557 64.921 79.627 66.78C78.542 68.6392 79.1622 70.9628 81.0222 71.8924L83.8122 73.4416C76.9922 82.892 66.4522 89.3988 54.2072 90.4832V87.2298C54.2072 85.061 52.5024 83.5116 50.4874 83.5116C48.4724 83.5116 46.7672 85.2158 46.7672 87.2298V90.4832C27.2374 88.6242 11.5826 73.1318 9.7226 53.4566H12.9774C15.1473 53.4566 16.6976 51.7524 16.6976 49.7384C16.6976 47.7244 14.9923 46.0202 12.9774 46.0202H9.7226C11.5826 26.5 27.0824 10.8527 46.7672 8.99362V12.247C46.7672 14.4159 48.4724 15.9652 50.4874 15.9652C52.5024 15.9652 54.2072 14.261 54.2072 12.247V5.12054C54.2072 2.95162 52.5024 1.40234 50.4874 1.40234C23.6726 1.40234 1.97266 23.0916 1.97266 49.8934C1.97266 76.6952 23.6726 98.3842 50.4874 98.3842C68.4674 98.3842 84.122 88.6242 92.492 74.2162C93.422 72.3572 92.802 70.0332 90.942 68.9488Z" fill="#69AEFF"/>
<path d="M67.2256 20.7686C69.0856 21.853 71.4106 21.2334 72.3406 19.3743L75.9058 13.1773C76.9908 11.3182 76.3708 8.99442 74.511 8.06486C72.651 6.9804 70.3258 7.60014 69.3958 9.45924L65.8308 15.6562C64.7458 17.3604 65.3656 19.6842 67.2256 20.7686Z" fill="#69AEFF"/>
<path d="M84.7426 34.4024L90.9426 30.8392C92.8026 29.7546 93.4228 27.431 92.3378 25.7268C91.2528 23.8678 88.9278 23.248 87.2228 24.3324L81.0228 27.8956C79.1628 28.98 78.5426 31.304 79.6276 33.008C80.7126 34.8672 82.8826 35.4868 84.7426 34.4024Z" fill="#69AEFF"/>
<path d="M95.1273 46.1758H87.9975C85.8275 46.1758 84.2773 47.88 84.2773 49.8942C84.2773 51.9082 85.9825 53.6124 87.9975 53.6124H95.1273C97.2973 53.6124 98.8475 51.9082 98.8475 49.8942C98.8475 47.88 97.1423 46.1758 95.1273 46.1758Z" fill="#69AEFF"/>
<path d="M54.2065 27.5854C54.2065 25.4164 52.5017 23.8672 50.4867 23.8672C48.4717 23.8672 46.7665 25.5714 46.7665 27.5854V39.6696C42.5815 41.2188 39.6367 45.2468 39.6367 50.0494C39.6367 56.0916 44.5965 61.049 50.6415 61.049C56.6865 61.049 61.6465 56.0916 61.6465 50.0494C61.6465 45.2468 58.7015 41.2188 54.5165 39.6696V27.5854H54.2065ZM50.3315 53.3028C48.4715 53.3028 46.9217 51.7536 46.9217 49.8946C46.9217 48.0354 48.4715 46.4862 50.3315 46.4862C52.1915 46.4862 53.7415 48.0354 53.7415 49.8946C53.7415 51.7536 52.1915 53.3028 50.3315 53.3028Z" fill="#69AEFF"/>
</svg>
