<svg width="36" height="36" viewBox="0 0 36 36" fill="none" xmlns="http://www.w3.org/2000/svg">
<path d="M18 3C14.8174 3 11.7652 4.26428 9.51472 6.51472C7.26428 8.76516 6 11.8174 6 15C6 23.1 16.575 32.25 17.025 32.64C17.2967 32.8724 17.6425 33.0001 18 33.0001C18.3575 33.0001 18.7033 32.8724 18.975 32.64C19.5 32.25 30 23.1 30 15C30 11.8174 28.7357 8.76516 26.4853 6.51472C24.2348 4.26428 21.1826 3 18 3ZM18 29.475C14.805 26.475 9 20.01 9 15C9 12.6131 9.94821 10.3239 11.636 8.63604C13.3239 6.94821 15.6131 6 18 6C20.3869 6 22.6761 6.94821 24.364 8.63604C26.0518 10.3239 27 12.6131 27 15C27 20.01 21.195 26.49 18 29.475ZM18 9C16.8133 9 15.6533 9.35189 14.6666 10.0112C13.6799 10.6705 12.9108 11.6075 12.4567 12.7039C12.0026 13.8003 11.8838 15.0067 12.1153 16.1705C12.3468 17.3344 12.9182 18.4035 13.7574 19.2426C14.5965 20.0818 15.6656 20.6532 16.8295 20.8847C17.9933 21.1162 19.1997 20.9974 20.2961 20.5433C21.3925 20.0892 22.3295 19.3201 22.9888 18.3334C23.6481 17.3467 24 16.1867 24 15C24 13.4087 23.3679 11.8826 22.2426 10.7574C21.1174 9.63214 19.5913 9 18 9ZM18 18C17.4067 18 16.8266 17.8241 16.3333 17.4944C15.8399 17.1648 15.4554 16.6962 15.2284 16.1481C15.0013 15.5999 14.9419 14.9967 15.0576 14.4147C15.1734 13.8328 15.4591 13.2982 15.8787 12.8787C16.2982 12.4591 16.8328 12.1734 17.4147 12.0576C17.9967 11.9419 18.5999 12.0013 19.1481 12.2284C19.6962 12.4554 20.1648 12.8399 20.4944 13.3333C20.8241 13.8266 21 14.4067 21 15C21 15.7956 20.6839 16.5587 20.1213 17.1213C19.5587 17.6839 18.7956 18 18 18Z" fill="#69AEFF"/>
</svg>
