<svg width="36" height="36" viewBox="0 0 36 36" fill="none" xmlns="http://www.w3.org/2000/svg">
<path d="M33 25.38V29.88C33.0017 30.2977 32.9161 30.7112 32.7488 31.094C32.5814 31.4768 32.3359 31.8204 32.0281 32.1028C31.7203 32.3852 31.3569 32.6002 30.9611 32.7341C30.5654 32.8679 30.1461 32.9176 29.73 32.88C25.1143 32.3785 20.6805 30.8012 16.785 28.275C13.1607 25.972 10.088 22.8993 7.785 19.275C5.24997 15.3618 3.67236 10.9065 3.18 6.26999C3.14251 5.85519 3.19181 5.43713 3.32475 5.04243C3.45769 4.64773 3.67136 4.28503 3.95215 3.97742C4.23294 3.66982 4.57471 3.42406 4.95569 3.25578C5.33666 3.08749 5.74851 3.00039 6.165 2.99999H10.665C11.393 2.99283 12.0987 3.25061 12.6506 3.72529C13.2026 4.19997 13.5631 4.85916 13.665 5.57999C13.8549 7.02009 14.2072 8.43408 14.715 9.79499C14.9168 10.3319 14.9605 10.9154 14.8409 11.4763C14.7212 12.0373 14.4433 12.5522 14.04 12.96L12.135 14.865C14.2703 18.6203 17.3797 21.7297 21.135 23.865L23.04 21.96C23.4478 21.5567 23.9627 21.2788 24.5237 21.1591C25.0846 21.0395 25.6681 21.0832 26.205 21.285C27.5659 21.7928 28.9799 22.1451 30.42 22.335C31.1486 22.4378 31.8141 22.8048 32.2898 23.3662C32.7655 23.9277 33.0183 24.6444 33 25.38Z" stroke="#69AEFF" stroke-width="2.5" stroke-linecap="round" stroke-linejoin="round"/>
</svg>
