<svg width="36" height="36" viewBox="0 0 36 36" fill="none" xmlns="http://www.w3.org/2000/svg">
<path d="M24.75 31.5007C13.5844 31.5007 4.5 22.4163 4.5 11.2507C4.50422 9.33545 5.20379 7.48692 6.46864 6.04876C7.73349 4.61061 9.47755 3.6807 11.3766 3.43193C11.8607 3.37826 12.3493 3.48018 12.7715 3.72292C13.1938 3.96566 13.5278 4.33659 13.725 4.78193L16.5516 11.3772C16.6982 11.7196 16.757 12.0931 16.7226 12.4639C16.6882 12.8348 16.5617 13.1911 16.3547 13.5007L14.0203 17.0726C15.0774 19.2178 16.8191 20.9496 18.9703 21.9944L22.5 19.646C22.8092 19.4376 23.1665 19.3114 23.538 19.2794C23.9096 19.2474 24.2831 19.3107 24.6234 19.4632L31.2188 22.2757C31.6641 22.4729 32.035 22.8069 32.2778 23.2292C32.5205 23.6514 32.6224 24.14 32.5688 24.6241C32.32 26.5231 31.3901 28.2672 29.9519 29.532C28.5138 30.7969 26.6652 31.4965 24.75 31.5007ZM11.6578 5.66787C10.3007 5.84232 9.05373 6.50545 8.15034 7.53309C7.24694 8.56073 6.74909 9.88241 6.75 11.2507C6.75372 16.0234 8.65134 20.5996 12.0262 23.9745C15.401 27.3493 19.9772 29.247 24.75 29.2507C26.1183 29.2516 27.44 28.7537 28.4676 27.8503C29.4952 26.947 30.1584 25.7 30.3328 24.3429L23.7375 21.5304L20.2219 23.8788C19.8984 24.0927 19.5251 24.2193 19.1383 24.2464C18.7515 24.2735 18.3642 24.2001 18.0141 24.0335C15.3941 22.7662 13.2749 20.6568 11.9953 18.0429C11.8266 17.6939 11.7509 17.3073 11.7755 16.9205C11.8002 16.5337 11.9243 16.1598 12.1359 15.8351L14.4844 12.2632L11.6578 5.66787Z" fill="#69AEFF"/>
</svg>
