<svg width="100" height="100" viewBox="0 0 100 100" fill="none" xmlns="http://www.w3.org/2000/svg">
<path d="M87.3342 32.0416V18.7182C87.3342 16.5493 85.629 15 83.614 15H4.71982C2.54984 15 1 16.7042 1 18.7182V79.2932C1 81.4622 2.70484 83.0114 4.71982 83.0114H83.614C85.784 83.0114 87.3342 81.3072 87.3342 79.2932V65.9698C93.2242 65.5052 97.8742 60.7024 97.8742 54.6604V43.351C98.0292 37.464 93.2242 32.5064 87.3342 32.0416ZM79.7392 75.575H8.43964V22.5913H79.7392V32.0416H62.6892C53.2344 32.0416 45.4844 39.7878 45.6394 49.3932C45.7944 58.6886 53.3894 66.1248 62.6892 66.1248H79.7392V75.575ZM90.4342 54.8154C90.4342 56.8294 88.729 58.5334 86.714 58.5334C83.924 58.5334 66.5646 58.5334 62.9996 58.5334C57.7296 58.5334 53.3894 54.5054 53.3894 49.238C53.2344 43.8158 57.5744 39.478 62.8444 39.478H86.714C88.729 39.478 90.4342 41.1822 90.4342 43.1962V54.8154ZM67.0292 49.0832C67.0292 51.7168 64.8596 53.8858 62.2246 53.8858C59.5896 53.8858 57.4194 51.7168 57.4194 49.0832C57.4194 46.4494 59.5896 44.2806 62.2246 44.2806C65.0146 44.4356 67.0292 46.4494 67.0292 49.0832Z" fill="#69AEFF"/>
</svg>
