<svg width="8" height="10" viewBox="0 0 8 10" fill="none" xmlns="http://www.w3.org/2000/svg">
<path d="M1.43598 9.61041V0.566406H3.81732C4.92354 0.566406 5.74265 0.790184 6.27465 1.23774C6.8151 1.6853 7.08532 2.33552 7.08532 3.18841C7.08532 3.76263 6.95443 4.25663 6.69265 4.67041C6.43087 5.07574 6.04243 5.38818 5.52732 5.60774C5.02065 5.8273 4.39154 5.93707 3.63998 5.93707H2.57598V9.61041H1.43598ZM0.333984 7.88774V7.06441H4.66598V7.88774H0.333984ZM0.333984 5.93707V4.97441H3.23465V5.93707H0.333984ZM3.47532 4.97441C3.99043 4.97441 4.42532 4.91952 4.77998 4.80974C5.1431 4.69996 5.42176 4.51841 5.61598 4.26507C5.81021 4.01174 5.90732 3.66552 5.90732 3.22641C5.90732 2.65218 5.72998 2.22574 5.37532 1.94707C5.02065 1.66841 4.46754 1.52907 3.71598 1.52907H2.57598V4.97441H3.47532Z" fill="#B6B6B6"/>
</svg>