<svg width="22" height="22" viewBox="0 0 22 22" fill="none" xmlns="http://www.w3.org/2000/svg">
<g id="Stars">
<path id="Star 5" d="M8.92741 7.02985L11 1.97647L13.0726 7.02986C13.2521 7.46765 13.6635 7.76652 14.1354 7.80201L19.5819 8.21158L15.4163 11.7443C15.0554 12.0504 14.8983 12.534 15.0104 12.9937L16.3039 18.3002L11.6568 15.4302C11.2542 15.1815 10.7458 15.1815 10.3432 15.4302L5.6961 18.3002L6.98965 12.9937C7.10171 12.534 6.94458 12.0504 6.5837 11.7443L6.09861 12.3163L6.5837 11.7443L2.41812 8.21158L7.86463 7.80201C8.33649 7.76652 8.74785 7.46765 8.92741 7.02985ZM16.4483 18.8924C16.4482 18.8922 16.4481 18.8919 16.4481 18.8917L16.4483 18.8924Z" stroke="#69AEFF" stroke-width="1.5"/>
</g>
</svg>
