<svg width="22" height="22" viewBox="0 0 22 22" fill="none" xmlns="http://www.w3.org/2000/svg">
<g id="Stars">
<path id="Star 1" d="M10.5374 1.12792C10.7071 0.714225 11.2929 0.714226 11.4626 1.12792L13.7665 6.74526C13.8383 6.92037 14.0029 7.03993 14.1916 7.05412L20.246 7.5094C20.6918 7.54293 20.8729 8.10012 20.5319 8.38932L15.9014 12.3163C15.757 12.4387 15.6942 12.6322 15.739 12.8161L17.1769 18.7148C17.2828 19.1492 16.8088 19.4935 16.4284 19.2586L11.2627 16.0683C11.1017 15.9688 10.8983 15.9688 10.7373 16.0683L5.57159 19.2586C5.19116 19.4935 4.71719 19.1492 4.82308 18.7148L6.26098 12.8161C6.30581 12.6322 6.24296 12.4387 6.09861 12.3163L1.46814 8.38932C1.12713 8.10012 1.30817 7.54293 1.75404 7.5094L7.80839 7.05412C7.99713 7.03993 8.16168 6.92037 8.2335 6.74526L10.5374 1.12792Z" fill="#69AEFF"/>
</g>
</svg>
