<svg width="17" height="20" viewBox="0 0 17 20" fill="none" xmlns="http://www.w3.org/2000/svg">
<path d="M12.4995 10C13.2952 10 14.0583 10.3161 14.6209 10.8787C15.1835 11.4413 15.4995 12.2044 15.4995 13V19C15.4995 19.2652 15.3942 19.5196 15.2066 19.7071C15.0191 19.8947 14.7648 20 14.4995 20C14.2343 20 13.98 19.8947 13.7924 19.7071C13.6049 19.5196 13.4995 19.2652 13.4995 19V13C13.4995 12.7348 13.3942 12.4804 13.2066 12.2929C13.0191 12.1054 12.7648 12 12.4995 12H4.49954C4.23433 12 3.97997 12.1054 3.79244 12.2929C3.6049 12.4804 3.49954 12.7348 3.49954 13V19C3.49954 19.2652 3.39418 19.5196 3.20665 19.7071C3.01911 19.8947 2.76476 20 2.49954 20C2.23433 20 1.97997 19.8947 1.79244 19.7071C1.6049 19.5196 1.49954 19.2652 1.49954 19V13C1.49954 12.2044 1.81561 11.4413 2.37822 10.8787C2.94083 10.3161 3.70389 10 4.49954 10H12.4995ZM10.4995 14C10.7544 14.0003 10.9996 14.0979 11.1849 14.2729C11.3702 14.4478 11.4818 14.687 11.4967 14.9414C11.5117 15.1958 11.4289 15.4464 11.2653 15.6418C11.1017 15.8373 10.8696 15.9629 10.6165 15.993L10.4995 16H6.49954C6.24466 15.9997 5.99951 15.9021 5.81417 15.7272C5.62884 15.5522 5.51731 15.3131 5.50237 15.0586C5.48743 14.8042 5.57022 14.5536 5.73381 14.3582C5.8974 14.1627 6.12945 14.0371 6.38254 14.007L6.49954 14H10.4995ZM8.49954 6.00001C9.55954 6.00001 10.5465 6.33101 11.3565 6.89601C11.5742 7.04771 11.7226 7.27965 11.7692 7.54079C11.8158 7.80194 11.7567 8.0709 11.605 8.28851C11.4533 8.50612 11.2214 8.65455 10.9603 8.70116C10.6991 8.74776 10.4302 8.68871 10.2125 8.53701C9.71026 8.18631 9.11215 7.99881 8.49954 8.00001C7.86054 8.00001 7.27154 8.19801 6.78654 8.53701C6.679 8.61533 6.55692 8.67141 6.42743 8.70196C6.29795 8.73251 6.16367 8.73691 6.03246 8.71492C5.90126 8.69292 5.77576 8.64496 5.66332 8.57385C5.55088 8.50274 5.45376 8.40991 5.37764 8.3008C5.30153 8.19169 5.24795 8.06848 5.22005 7.9384C5.19215 7.80832 5.19049 7.67398 5.21516 7.54325C5.23983 7.41252 5.29033 7.28802 5.36372 7.17706C5.43711 7.06609 5.5319 6.97088 5.64254 6.89701C6.48036 6.31211 7.47776 5.99896 8.49954 6.00001ZM8.49954 3.00001C10.4175 3.00001 12.1805 3.67601 13.5595 4.80301C13.6635 4.88538 13.75 4.9876 13.814 5.10372C13.8781 5.21983 13.9184 5.34753 13.9326 5.47938C13.9469 5.61122 13.9347 5.74458 13.8969 5.8717C13.8591 5.99881 13.7965 6.11714 13.7125 6.21979C13.6285 6.32244 13.525 6.40737 13.4079 6.46964C13.2908 6.5319 13.1625 6.57026 13.0305 6.58247C12.8984 6.59468 12.7653 6.5805 12.6388 6.54077C12.5122 6.50103 12.3949 6.43653 12.2935 6.35101C11.2235 5.47482 9.88252 4.9973 8.49954 5.00001C7.05954 5.00001 5.74154 5.50601 4.70754 6.35001C4.60601 6.43458 4.48873 6.49818 4.36247 6.53715C4.23621 6.57612 4.10348 6.58968 3.97195 6.57705C3.84042 6.56441 3.7127 6.52584 3.59616 6.46355C3.47963 6.40127 3.3766 6.3165 3.29302 6.21416C3.20944 6.11181 3.14697 5.99392 3.10922 5.86729C3.07148 5.74066 3.0592 5.60781 3.0731 5.4764C3.08701 5.345 3.12681 5.21766 3.19023 5.10173C3.25364 4.98581 3.33939 4.8836 3.44254 4.80101C4.86928 3.63405 6.65635 2.9976 8.49954 3.00001ZM8.49954 1.10719e-05C11.1488 -0.00375274 13.7098 0.952209 15.7085 2.69101C15.9036 2.86631 16.022 3.11121 16.0382 3.37295C16.0544 3.6347 15.9671 3.89233 15.7952 4.09035C15.6233 4.28837 15.3804 4.41094 15.119 4.43164C14.8576 4.45233 14.5985 4.36951 14.3975 4.20101C12.7624 2.77818 10.667 1.99623 8.49954 2.00001C6.33067 1.99585 4.23407 2.77941 2.59954 4.20501C2.3993 4.37899 2.13815 4.4663 1.87354 4.44774C1.60892 4.42917 1.36252 4.30625 1.18854 4.10601C1.01456 3.90577 0.927248 3.64462 0.945814 3.38001C0.96438 3.11539 1.0873 2.86899 1.28754 2.69501C3.28658 0.954162 5.84875 -0.00327891 8.49954 1.10719e-05Z" fill="#C894C4"/>
</svg>
