<svg width="21" height="18" viewBox="0 0 21 18" fill="none" xmlns="http://www.w3.org/2000/svg">
<path d="M0 18V3C0 2.16667 0.291667 1.45833 0.875 0.875C1.45833 0.291667 2.16667 0 3 0H7C7.83333 0 8.54167 0.291667 9.125 0.875C9.70833 1.45833 10 2.16667 10 3V18H0ZM7 12H8V7H7V12ZM2 16H8V14H7C6.45 14 5.97933 13.8043 5.588 13.413C5.196 13.021 5 12.55 5 12V7C5 6.45 5.196 5.979 5.588 5.587C5.97933 5.19567 6.45 5 7 5H8V3C8 2.71667 7.90433 2.479 7.713 2.287C7.521 2.09567 7.28333 2 7 2H3C2.71667 2 2.479 2.09567 2.287 2.287C2.09567 2.479 2 2.71667 2 3V16ZM14.2 10.575C13.7667 10.575 13.3417 10.5167 12.925 10.4C12.5083 10.2833 12.1 10.1333 11.7 9.95L12.325 8.05C12.6583 8.2 12.9873 8.325 13.312 8.425C13.6373 8.525 13.9417 8.575 14.225 8.575C14.425 8.575 14.625 8.54167 14.825 8.475C15.025 8.40833 15.2333 8.30833 15.45 8.175C15.85 7.89167 16.25 7.7 16.65 7.6C17.05 7.5 17.4333 7.45 17.8 7.45C18.2167 7.45 18.6457 7.504 19.087 7.612C19.529 7.72067 19.9417 7.86667 20.325 8.05L19.7 9.95C19.3167 9.81667 18.9627 9.7 18.638 9.6C18.3127 9.5 18.0333 9.45 17.8 9.45C17.6 9.45 17.3793 9.48733 17.138 9.562C16.896 9.63733 16.6417 9.76667 16.375 9.95C16.025 10.1833 15.6707 10.346 15.312 10.438C14.954 10.5293 14.5833 10.575 14.2 10.575ZM14.225 6.675C13.7917 6.675 13.3583 6.61667 12.925 6.5C12.4917 6.38333 12.0833 6.23333 11.7 6.05L12.325 4.15C12.7583 4.33333 13.125 4.46667 13.425 4.55C13.725 4.63333 13.9917 4.675 14.225 4.675C14.425 4.675 14.625 4.646 14.825 4.588C15.025 4.52933 15.2333 4.425 15.45 4.275C15.8667 3.99167 16.271 3.8 16.663 3.7C17.0543 3.6 17.4333 3.55 17.8 3.55C18.2167 3.55 18.6333 3.60433 19.05 3.713C19.4667 3.821 19.8917 3.96667 20.325 4.15L19.7 6.05C19.2667 5.9 18.9 5.77933 18.6 5.688C18.3 5.596 18.0333 5.55 17.8 5.55C17.5833 5.55 17.3627 5.58333 17.138 5.65C16.9127 5.71667 16.6583 5.85 16.375 6.05C16.075 6.26667 15.7377 6.425 15.363 6.525C14.9877 6.625 14.6083 6.675 14.225 6.675ZM14.225 14.475C13.7917 14.475 13.3627 14.4167 12.938 14.3C12.5127 14.1833 12.1 14.0333 11.7 13.85L12.325 11.95C12.6917 12.1167 13.0333 12.2457 13.35 12.337C13.6667 12.429 13.9583 12.475 14.225 12.475C14.425 12.475 14.625 12.4457 14.825 12.387C15.025 12.329 15.2333 12.225 15.45 12.075C15.8333 11.8083 16.2417 11.6207 16.675 11.512C17.1083 11.404 17.4917 11.35 17.825 11.35C18.2417 11.35 18.6667 11.4083 19.1 11.525C19.5333 11.6417 19.9417 11.7833 20.325 11.95L19.7 13.85C19.2667 13.7 18.8957 13.5793 18.587 13.488C18.279 13.396 18.0167 13.35 17.8 13.35C17.5667 13.35 17.3293 13.3873 17.088 13.462C16.846 13.5373 16.6083 13.6667 16.375 13.85C16.0917 14.05 15.7623 14.204 15.387 14.312C15.0123 14.4207 14.625 14.475 14.225 14.475ZM8 16V2.787V3V16Z" fill="#82D42A"/>
</svg>
