<svg width="17" height="9" viewBox="0 0 17 9" fill="none" xmlns="http://www.w3.org/2000/svg">
<path d="M11.975 8.1375C11.825 7.9875 11.753 7.80625 11.759 7.59375C11.7655 7.38125 11.8438 7.2 11.9937 7.05L14.1125 4.93125H0.75C0.5375 4.93125 0.35925 4.85925 0.21525 4.71525C0.0717501 4.57175 0 4.39365 0 4.18115C0 3.96865 0.0717501 3.7905 0.21525 3.6465C0.35925 3.503 0.5375 3.43125 0.75 3.43125H14.1125L11.975 1.29375C11.825 1.14375 11.75 0.9655 11.75 0.759C11.75 0.553 11.825 0.375 11.975 0.225C12.125 0.0749998 12.3032 0 12.5097 0C12.7157 0 12.8938 0.0749998 13.0438 0.225L16.475 3.65625C16.55 3.73125 16.6033 3.8125 16.6348 3.9C16.6658 3.9875 16.6813 4.08125 16.6813 4.18125C16.6813 4.28125 16.6658 4.375 16.6348 4.4625C16.6033 4.55 16.55 4.63125 16.475 4.70625L13.025 8.15625C12.8875 8.29375 12.7157 8.3625 12.5097 8.3625C12.3032 8.3625 12.125 8.2875 11.975 8.1375Z" fill="#373737"/>
</svg>
