<svg width="113" height="114" viewBox="0 0 113 114" fill="none" xmlns="http://www.w3.org/2000/svg">
<path d="M79.9062 15C81.4685 15 82.9668 15.6321 84.0715 16.7574C85.1763 17.8826 85.7969 19.4087 85.7969 21V93C85.7969 94.5913 85.1763 96.1174 84.0715 97.2426C82.9668 98.3679 81.4685 99 79.9062 99H32.7812C31.219 99 29.7207 98.3679 28.6159 97.2426C27.5112 96.1174 26.8906 94.5913 26.8906 93L27 57L26.8906 21C26.8906 19.4087 27.5112 17.8826 28.6159 16.7574C29.7207 15.6321 31.219 15 32.7812 15H79.9062ZM32.7812 9C29.6567 9 26.6601 10.2643 24.4506 12.5147C22.2412 14.7652 21 17.8174 21 21V93C21 96.1826 22.2412 99.2348 24.4506 101.485C26.6601 103.736 29.6567 105 32.7812 105H79.9062C83.0308 105 86.0274 103.736 88.2368 101.485C90.4463 99.2348 91.6875 96.1826 91.6875 93V21C91.6875 17.8174 90.4463 14.7652 88.2368 12.5147C86.0274 10.2643 83.0308 9 79.9062 9H32.7812Z" fill="white"/>
<path d="M32.7812 24C32.7812 23.2044 33.0916 22.4413 33.6439 21.8787C34.1963 21.3161 34.9454 21 35.7266 21H76.9609C77.7421 21 78.4912 21.3161 79.0436 21.8787C79.5959 22.4413 79.9062 23.2044 79.9062 24V36C79.9062 36.7956 79.5959 37.5587 79.0436 38.1213C78.4912 38.6839 77.7421 39 76.9609 39H35.7266C34.9454 39 34.1963 38.6839 33.6439 38.1213C33.0916 37.5587 32.7812 36.7956 32.7812 36V24ZM32.7812 48C32.7812 47.2044 33.0916 46.4413 33.6439 45.8787C34.1963 45.3161 34.9454 45 35.7266 45H41.6172C42.3983 45 43.1475 45.3161 43.6998 45.8787C44.2522 46.4413 44.5625 47.2044 44.5625 48V54C44.5625 54.7956 44.2522 55.5587 43.6998 56.1213C43.1475 56.6839 42.3983 57 41.6172 57H35.7266C34.9454 57 34.1963 56.6839 33.6439 56.1213C33.0916 55.5587 32.7812 54.7956 32.7812 54V48ZM32.7812 66C32.7812 65.2044 33.0916 64.4413 33.6439 63.8787C34.1963 63.3161 34.9454 63 35.7266 63H41.6172C42.3983 63 43.1475 63.3161 43.6998 63.8787C44.2522 64.4413 44.5625 65.2044 44.5625 66V72C44.5625 72.7956 44.2522 73.5587 43.6998 74.1213C43.1475 74.6839 42.3983 75 41.6172 75H35.7266C34.9454 75 34.1963 74.6839 33.6439 74.1213C33.0916 73.5587 32.7812 72.7956 32.7812 72V66ZM32.7812 84C32.7812 83.2044 33.0916 82.4413 33.6439 81.8787C34.1963 81.3161 34.9454 81 35.7266 81H41.6172C42.3983 81 43.1475 81.3161 43.6998 81.8787C44.2522 82.4413 44.5625 83.2044 44.5625 84V90C44.5625 90.7956 44.2522 91.5587 43.6998 92.1213C43.1475 92.6839 42.3983 93 41.6172 93H35.7266C34.9454 93 34.1963 92.6839 33.6439 92.1213C33.0916 91.5587 32.7812 90.7956 32.7812 90V84ZM50.4531 48C50.4531 47.2044 50.7634 46.4413 51.3158 45.8787C51.8681 45.3161 52.6173 45 53.3984 45H59.2891C60.0702 45 60.8194 45.3161 61.3717 45.8787C61.9241 46.4413 62.2344 47.2044 62.2344 48V54C62.2344 54.7956 61.9241 55.5587 61.3717 56.1213C60.8194 56.6839 60.0702 57 59.2891 57H53.3984C52.6173 57 51.8681 56.6839 51.3158 56.1213C50.7634 55.5587 50.4531 54.7956 50.4531 54V48ZM50.4531 66C50.4531 65.2044 50.7634 64.4413 51.3158 63.8787C51.8681 63.3161 52.6173 63 53.3984 63H59.2891C60.0702 63 60.8194 63.3161 61.3717 63.8787C61.9241 64.4413 62.2344 65.2044 62.2344 66V72C62.2344 72.7956 61.9241 73.5587 61.3717 74.1213C60.8194 74.6839 60.0702 75 59.2891 75H53.3984C52.6173 75 51.8681 74.6839 51.3158 74.1213C50.7634 73.5587 50.4531 72.7956 50.4531 72V66ZM50.4531 84C50.4531 83.2044 50.7634 82.4413 51.3158 81.8787C51.8681 81.3161 52.6173 81 53.3984 81H59.2891C60.0702 81 60.8194 81.3161 61.3717 81.8787C61.9241 82.4413 62.2344 83.2044 62.2344 84V90C62.2344 90.7956 61.9241 91.5587 61.3717 92.1213C60.8194 92.6839 60.0702 93 59.2891 93H53.3984C52.6173 93 51.8681 92.6839 51.3158 92.1213C50.7634 91.5587 50.4531 90.7956 50.4531 90V84ZM68.125 48C68.125 47.2044 68.4353 46.4413 68.9877 45.8787C69.54 45.3161 70.2892 45 71.0703 45H76.9609C77.7421 45 78.4912 45.3161 79.0436 45.8787C79.5959 46.4413 79.9062 47.2044 79.9062 48V54C79.9062 54.7956 79.5959 55.5587 79.0436 56.1213C78.4912 56.6839 77.7421 57 76.9609 57H71.0703C70.2892 57 69.54 56.6839 68.9877 56.1213C68.4353 55.5587 68.125 54.7956 68.125 54V48ZM68.125 66C68.125 65.2044 68.4353 64.4413 68.9877 63.8787C69.54 63.3161 70.2892 63 71.0703 63H76.9609C77.7421 63 78.4912 63.3161 79.0436 63.8787C79.5959 64.4413 79.9062 65.2044 79.9062 66V90C79.9062 90.7956 79.5959 91.5587 79.0436 92.1213C78.4912 92.6839 77.7421 93 76.9609 93H71.0703C70.2892 93 69.54 92.6839 68.9877 92.1213C68.4353 91.5587 68.125 90.7956 68.125 90V66Z" fill="white"/>
</svg>
