<svg width="7" height="6" viewBox="0 0 7 6" fill="none" xmlns="http://www.w3.org/2000/svg"><path d="M0.0877886 0.858645C0.145208 0.758633 0.228071 0.675596 0.327962 0.617967C0.427854 0.560337 0.541216 0.530167 0.656539 0.53052L5.46904 0.53052C5.58436 0.530088 5.69775 0.560183 5.79768 0.617747C5.89761 0.675311 5.98053 0.758296 6.03802 0.858272C6.09551 0.958249 6.12551 1.07166 6.12499 1.18698C6.12447 1.30231 6.09344 1.41544 6.03505 1.51489L3.63154 5.67114C3.574 5.77111 3.49113 5.85413 3.39128 5.91187C3.29143 5.9696 3.17813 6 3.06279 6C2.94745 6 2.83415 5.9696 2.7343 5.91187C2.63445 5.85413 2.55158 5.77111 2.49404 5.67114L0.0905232 1.51489C0.0316949 1.41565 0.000425816 1.30251 -5.53131e-05 1.18714C-0.000535965 1.07178 0.0297894 0.958373 0.0877886 0.858645Z" fill="#373737"/></svg>
