<svg width="95" height="95" viewBox="0 0 95 95" fill="none" xmlns="http://www.w3.org/2000/svg"><path d="M47.5 92.0312C72.0939 92.0312 92.0312 72.0939 92.0312 47.5C92.0312 22.9061 72.0939 2.96875 47.5 2.96875C22.9061 2.96875 2.96875 22.9061 2.96875 47.5C2.96875 72.0939 22.9061 92.0312 47.5 92.0312Z" fill="#82D42B"/><path d="M70.4322 22.9937C69.2542 21.782 67.3083 21.782 66.1303 22.9937L39.2604 50.6313C38.0823 51.843 36.1364 51.843 34.9584 50.6313L28.8697 44.3687C27.6917 43.157 25.7458 43.157 24.5678 44.3687L18.3613 50.7525C17.2292 51.9169 17.2293 53.7706 18.3613 54.935L34.9584 72.0063C36.1364 73.218 38.0823 73.218 39.2604 72.0063L76.6387 33.56C77.7708 32.3956 77.7708 30.5419 76.6387 29.3775L70.4322 22.9937Z" fill="white"/></svg>
