<svg width="29" height="24" viewBox="0 0 36 30" fill="none" xmlns="http://www.w3.org/2000/svg">
<path d="M1.95312 27C1.95312 27.8284 2.6247 28.5 3.45312 28.5H8.36222C9.19064 28.5 9.86222 27.8284 9.86222 27V10.5C9.86222 9.67157 9.19064 9 8.36222 9H3.45312C2.6247 9 1.95312 9.67157 1.95312 10.5V27ZM14.044 27C14.044 27.8284 14.7156 28.5 15.544 28.5H20.4531C21.2816 28.5 21.9531 27.8284 21.9531 27V3C21.9531 2.17157 21.2816 1.5 20.4531 1.5H15.544C14.7156 1.5 14.044 2.17157 14.044 3V27ZM26.1349 27C26.1349 27.8284 26.8065 28.5 27.6349 28.5H32.544C33.3725 28.5 34.044 27.8284 34.044 27V16.5C34.044 15.6716 33.3725 15 32.544 15H27.6349C26.8065 15 26.1349 15.6716 26.1349 16.5V27Z" stroke="#E3EBEF" stroke-width="3" stroke-linejoin="round"/>
</svg>
