<svg width="100" height="92" viewBox="0 0 100 92" fill="none" xmlns="http://www.w3.org/2000/svg">
<path d="M95.8308 40.4167V6.5C95.8308 5.77065 95.541 5.07118 95.0253 4.55546C94.5096 4.03973 93.8101 3.75 93.0807 3.75H6.91406C6.18472 3.75 5.48524 4.03973 4.96952 4.55546C4.45379 5.07118 4.16406 5.77065 4.16406 6.5V40.4167M95.8308 40.4167H4.16406M95.8308 40.4167L92.2099 52.26C91.6367 54.1376 90.4758 55.7815 88.8983 56.9498C87.3207 58.1182 85.4097 58.7492 83.4466 58.75H77.4974M4.16406 40.4167L7.7849 52.26C8.35812 54.1376 9.51896 55.7815 11.0966 56.9498C12.6741 58.1182 14.5851 58.7492 16.5482 58.75H22.4974M77.4974 22.0833H82.0807M38.5391 56.4583C38.5391 56.4583 38.5391 88.5417 22.4974 88.5417M61.4557 56.4583C61.4557 56.4583 61.4557 88.5417 77.4974 88.5417M49.9974 56.4583V88.5417" stroke="white" stroke-width="6.875" stroke-linecap="round" stroke-linejoin="round"/>
</svg>
