<svg width="23" height="21" viewBox="0 0 23 21" fill="none" xmlns="http://www.w3.org/2000/svg">
<path d="M21.5 9V1.6C21.5 1.44087 21.4368 1.28826 21.3243 1.17574C21.2117 1.06321 21.0591 1 20.9 1H2.1C1.94087 1 1.78826 1.06321 1.67574 1.17574C1.56321 1.28826 1.5 1.44087 1.5 1.6V9M21.5 9H1.5M21.5 9L20.71 11.584C20.5849 11.9936 20.3317 12.3523 19.9875 12.6072C19.6433 12.8621 19.2263 12.9998 18.798 13H17.5M1.5 9L2.29 11.584C2.41507 11.9936 2.66834 12.3523 3.01254 12.6072C3.35674 12.8621 3.77369 12.9998 4.202 13H5.5M17.5 5H18.5M9 12.5C9 12.5 9 19.5 5.5 19.5M14 12.5C14 12.5 14 19.5 17.5 19.5M11.5 12.5V19.5" stroke="#69AEFF" stroke-width="1.5" stroke-linecap="round" stroke-linejoin="round"/>
</svg>
