<svg width="28" height="30" viewBox="0 0 28 30" fill="none" xmlns="http://www.w3.org/2000/svg"><path d="M7.6016 2.1484L7.77838 1.97162L7.6016 2.1484C7.80672 2.35352 8.08492 2.46875 8.375 2.46875H19.625C19.9151 2.46875 20.1933 2.35352 20.3984 2.1484C20.6035 1.94328 20.7188 1.66508 20.7188 1.375C20.7188 1.08492 20.6035 0.80672 20.3984 0.601602C20.1933 0.396484 19.9151 0.28125 19.625 0.28125H8.375C8.08492 0.28125 7.80672 0.396484 7.6016 0.601602L7.7775 0.777499L7.6016 0.601602C7.39648 0.80672 7.28125 1.08492 7.28125 1.375C7.28125 1.66508 7.39648 1.94328 7.6016 2.1484ZM26.375 4.78125H1.625C1.33492 4.78125 1.05672 4.89648 0.851602 5.1016C0.646484 5.30672 0.53125 5.58492 0.53125 5.875C0.53125 6.16508 0.646484 6.44328 0.851602 6.6484C1.05672 6.85352 1.33492 6.96875 1.625 6.96875H2.78125V27.25C2.78125 27.8384 3.01501 28.4028 3.43111 28.8189C3.8472 29.235 4.41155 29.4688 5 29.4688H23C23.5884 29.4688 24.1528 29.235 24.5689 28.8189C24.985 28.4028 25.2188 27.8384 25.2188 27.25V6.96875H26.375C26.6651 6.96875 26.9433 6.85352 27.1484 6.6484C27.3535 6.44328 27.4688 6.16508 27.4688 5.875C27.4688 5.58492 27.3535 5.30672 27.1484 5.1016C26.9433 4.89648 26.6651 4.78125 26.375 4.78125ZM23.0312 27.25C23.0312 27.2583 23.028 27.2662 23.0221 27.2721L23.1989 27.4489L23.0221 27.2721C23.0162 27.278 23.0083 27.2812 23 27.2812H5C4.99171 27.2812 4.98376 27.278 4.97791 27.2721L4.80113 27.4489L4.9779 27.2721C4.97204 27.2662 4.96875 27.2583 4.96875 27.25V6.96875H23.0312V27.25Z" fill="#E3EBEF" stroke="#E3EBEF" stroke-width="0.5"/></svg>
