<svg width="20" height="12" viewBox="0 0 20 12" fill="none" xmlns="http://www.w3.org/2000/svg"><path d="M19.0984 9.15508L10.6984 0.730078C10.5984 0.630078 10.4901 0.559411 10.3734 0.518078C10.2568 0.476078 10.1318 0.455078 9.99844 0.455078C9.8651 0.455078 9.7401 0.476078 9.62344 0.518078C9.50677 0.559411 9.39844 0.630078 9.29844 0.730078L0.873437 9.15508C0.640104 9.38841 0.523437 9.68008 0.523437 10.0301C0.523437 10.3801 0.648437 10.6801 0.898437 10.9301C1.14844 11.1801 1.4401 11.3051 1.77344 11.3051C2.10677 11.3051 2.39844 11.1801 2.64844 10.9301L9.99844 3.58008L17.3484 10.9301C17.5818 11.1634 17.8691 11.2801 18.2104 11.2801C18.5524 11.2801 18.8484 11.1551 19.0984 10.9051C19.3484 10.6551 19.4734 10.3634 19.4734 10.0301C19.4734 9.69674 19.3484 9.40508 19.0984 9.15508Z" fill="#373737"/></svg>
