<svg width="110" height="110" viewBox="0 0 110 110" fill="none" xmlns="http://www.w3.org/2000/svg">
<path d="M100.831 50.4167V16.5C100.831 15.7707 100.541 15.0712 100.025 14.5555C99.5096 14.0397 98.8101 13.75 98.0807 13.75H11.9141C11.1847 13.75 10.4852 14.0397 9.96952 14.5555C9.45379 15.0712 9.16406 15.7707 9.16406 16.5V50.4167M100.831 50.4167H9.16406M100.831 50.4167L97.2099 62.26C96.6367 64.1376 95.4758 65.7815 93.8983 66.9498C92.3207 68.1182 90.4097 68.7492 88.4466 68.75H82.4974M9.16406 50.4167L12.7849 62.26C13.3581 64.1376 14.519 65.7815 16.0966 66.9498C17.6741 68.1182 19.5851 68.7492 21.5482 68.75H27.4974M82.4974 32.0833H87.0807M43.5391 66.4583C43.5391 66.4583 43.5391 98.5417 27.4974 98.5417M66.4557 66.4583C66.4557 66.4583 66.4557 98.5417 82.4974 98.5417M54.9974 66.4583V98.5417" stroke="white" stroke-width="4" stroke-linecap="round" stroke-linejoin="round"/>
</svg>
