<svg width="173" height="55" viewBox="0 0 173 55" fill="none" xmlns="http://www.w3.org/2000/svg">
<g clip-path="url(#clip0_592_4250)">
<path d="M55.2201 7.11133H41.1445C39.8982 7.11133 38.703 7.60642 37.8217 8.48768C36.9405 9.36894 36.4454 10.5642 36.4454 11.8105V29.8065C36.4437 29.9081 36.4625 30.0091 36.5005 30.1034C36.5386 30.1977 36.5952 30.2834 36.667 30.3553C36.7388 30.4273 36.8244 30.4841 36.9186 30.5224C37.0128 30.5607 37.1137 30.5797 37.2153 30.5782H40.3764C40.4781 30.5797 40.579 30.5607 40.6732 30.5224C40.7674 30.4841 40.8529 30.4273 40.9247 30.3553C40.9965 30.2834 41.0532 30.1977 41.0912 30.1034C41.1293 30.0091 41.148 29.9081 41.1463 29.8065V26.649C41.1444 26.5473 41.1629 26.4462 41.2009 26.3518C41.2389 26.2574 41.2955 26.1716 41.3673 26.0996C41.4392 26.0275 41.5249 25.9707 41.6192 25.9325C41.7135 25.8943 41.8145 25.8755 41.9162 25.8773H54.452C54.5537 25.8755 54.6547 25.8943 54.749 25.9325C54.8433 25.9707 54.929 26.0275 55.0008 26.0996C55.0727 26.1716 55.1293 26.2574 55.1673 26.3518C55.2053 26.4462 55.2238 26.5473 55.2219 26.649V29.7974C55.2202 29.8993 55.239 30.0004 55.2771 30.0948C55.3153 30.1892 55.3721 30.275 55.4441 30.347C55.5161 30.419 55.6019 30.4757 55.6963 30.5139C55.7907 30.5521 55.8918 30.5709 55.9936 30.5692H59.142C59.2438 30.5709 59.3449 30.5521 59.4393 30.5139C59.5337 30.4757 59.6195 30.419 59.6915 30.347C59.7635 30.275 59.8203 30.1892 59.8585 30.0948C59.8967 30.0004 59.9155 29.8993 59.9137 29.7974V11.8033C59.9118 10.5592 59.4166 9.36658 58.5368 8.48704C57.6569 7.60749 56.4642 7.11276 55.2201 7.11133ZM55.2201 20.4154C55.2218 20.517 55.203 20.618 55.165 20.7123C55.1269 20.8066 55.0703 20.8923 54.9985 20.9642C54.9267 21.0362 54.8411 21.093 54.7469 21.1313C54.6527 21.1696 54.5518 21.1886 54.4501 21.1871H41.9144C41.8128 21.1886 41.7118 21.1696 41.6176 21.1313C41.5235 21.093 41.4379 21.0362 41.3661 20.9642C41.2943 20.8923 41.2377 20.8066 41.1996 20.7123C41.1615 20.618 41.1428 20.517 41.1445 20.4154V12.575C41.1428 12.4733 41.1615 12.3724 41.1996 12.2781C41.2377 12.1838 41.2943 12.0981 41.3661 12.0261C41.4379 11.9542 41.5235 11.8973 41.6176 11.8591C41.7118 11.8208 41.8128 11.8018 41.9144 11.8033H54.4501C54.5518 11.8018 54.6527 11.8208 54.7469 11.8591C54.8411 11.8973 54.9267 11.9542 54.9985 12.0261C55.0703 12.0981 55.1269 12.1838 55.165 12.2781C55.203 12.3724 55.2218 12.4733 55.2201 12.575V20.4154Z" fill="#222223"/>
<path d="M86.7192 21.1865C86.7192 22.4328 86.2241 23.6281 85.3428 24.5094C84.4616 25.3906 83.2663 25.8857 82.0201 25.8857H80.4441C80.3797 25.8851 80.3166 25.9039 80.2631 25.9397C80.2095 25.9755 80.1681 26.0266 80.1441 26.0863C80.1265 26.1435 80.1234 26.2042 80.1351 26.2628C80.1468 26.3215 80.1728 26.3764 80.2109 26.4225L83.8256 30.0083C83.861 30.0608 83.8851 30.1199 83.8966 30.1821C83.9081 30.2443 83.9067 30.3082 83.8925 30.3698C83.8684 30.4298 83.8266 30.4811 83.7727 30.517C83.7188 30.5528 83.6553 30.5714 83.5906 30.5704H78.5102C78.2646 30.5727 78.0213 30.5231 77.7962 30.425C77.571 30.3269 77.3691 30.1825 77.2035 30.0011L73.6177 26.4153C73.2547 26.0725 72.7759 25.879 72.2767 25.8731H68.7235C68.6217 25.8711 68.5207 25.8897 68.4263 25.9276C68.3319 25.9656 68.2461 26.0222 68.174 26.0941C68.102 26.166 68.0452 26.2516 68.007 26.3459C67.9688 26.4402 67.95 26.5413 67.9517 26.643V29.7932C67.9534 29.8949 67.9347 29.9959 67.8966 30.0902C67.8586 30.1844 67.8019 30.2701 67.7301 30.3421C67.6583 30.4141 67.5728 30.4709 67.4786 30.5092C67.3844 30.5475 67.2835 30.5665 67.1818 30.565H64.0316C63.9298 30.5667 63.8287 30.5479 63.7343 30.5097C63.6399 30.4716 63.5541 30.4148 63.4821 30.3428C63.4101 30.2708 63.3533 30.185 63.3151 30.0906C63.277 29.9962 63.2582 29.8951 63.2599 29.7932V11.8027C63.2599 10.5564 63.755 9.36113 64.6362 8.47987C65.5175 7.5986 66.7127 7.10352 67.959 7.10352H82.0345C83.2808 7.10352 84.476 7.5986 85.3573 8.47987C86.2385 9.36113 86.7336 10.5564 86.7336 11.8027L86.7192 21.1865ZM68.7235 11.8027C68.6218 11.801 68.5208 11.8197 68.4266 11.8578C68.3323 11.8958 68.2466 11.9525 68.1746 12.0243C68.1026 12.0961 68.0458 12.1816 68.0075 12.2758C67.9692 12.37 67.9503 12.471 67.9517 12.5726V20.4148C67.95 20.5166 67.9688 20.6177 68.007 20.7121C68.0452 20.8066 68.1019 20.8923 68.174 20.9643C68.246 21.0363 68.3317 21.0931 68.4261 21.1313C68.5205 21.1695 68.6216 21.1883 68.7235 21.1865H81.2556C81.3574 21.1883 81.4585 21.1695 81.5529 21.1313C81.6473 21.0931 81.7331 21.0363 81.8051 20.9643C81.8771 20.8923 81.9339 20.8066 81.972 20.7121C82.0102 20.6177 82.029 20.5166 82.0273 20.4148V12.5726C82.0288 12.471 82.0098 12.37 81.9715 12.2758C81.9332 12.1816 81.8764 12.0961 81.8044 12.0243C81.7324 11.9525 81.6468 11.8958 81.5525 11.8578C81.4582 11.8197 81.3572 11.801 81.2556 11.8027H68.7235Z" fill="#222223"/>
<path d="M94.0275 30.5711H90.8773C90.7755 30.5726 90.6745 30.5536 90.5802 30.5153C90.4859 30.4771 90.4003 30.4203 90.3283 30.3483C90.2564 30.2764 90.1996 30.1907 90.1613 30.0964C90.123 30.0021 90.1041 29.9011 90.1055 29.7994V7.88138C90.1041 7.77971 90.1231 7.67878 90.1613 7.58459C90.1996 7.49039 90.2564 7.40485 90.3284 7.33303C90.4004 7.26122 90.4861 7.2046 90.5804 7.16653C90.6746 7.12847 90.7756 7.10973 90.8773 7.11144H94.0275C94.1291 7.10972 94.2299 7.12847 94.3241 7.16656C94.4183 7.20464 94.5039 7.26129 94.5757 7.33313C94.6475 7.40497 94.7042 7.49053 94.7423 7.58472C94.7804 7.67891 94.7991 7.77979 94.7974 7.88138V29.7994C94.7991 29.901 94.7804 30.002 94.7423 30.0963C94.7042 30.1906 94.6476 30.2762 94.5758 30.3482C94.504 30.4202 94.4185 30.477 94.3243 30.5153C94.2301 30.5536 94.1291 30.5726 94.0275 30.5711Z" fill="#222223"/>
<path d="M102.836 7.11135H118.451C118.658 7.11249 118.857 7.19293 119.007 7.33614C119.156 7.47935 119.245 7.67444 119.256 7.88129V11.0333C119.251 11.242 119.163 11.4403 119.013 11.5847C118.862 11.729 118.66 11.8076 118.451 11.8033H103.606C103.402 11.8056 103.208 11.8875 103.064 12.0314C102.92 12.1753 102.838 12.3698 102.836 12.5732V15.6909C102.831 15.795 102.847 15.8991 102.883 15.9967C102.92 16.0944 102.976 16.1836 103.048 16.2588C103.12 16.3341 103.206 16.3939 103.302 16.4345C103.398 16.4752 103.502 16.4958 103.606 16.4952C108.03 16.4952 112.462 16.4609 116.911 16.4952C117.526 16.4976 118.134 16.6211 118.701 16.8586C119.267 17.0961 119.782 17.4429 120.214 17.8794C120.647 18.3158 120.989 18.8332 121.221 19.402C121.454 19.9708 121.572 20.5799 121.569 21.1944V25.8935C121.575 26.5087 121.458 27.119 121.227 27.689C120.995 28.259 120.653 28.7774 120.22 29.2144C119.787 29.6514 119.272 29.9981 118.704 30.2347C118.136 30.4713 117.527 30.593 116.911 30.5927C111.616 30.5927 104.712 30.5584 98.9139 30.5584C98.8123 30.5601 98.7114 30.5413 98.6172 30.5032C98.5231 30.4652 98.4375 30.4085 98.3657 30.3367C98.2938 30.2648 98.2372 30.1793 98.1991 30.0851C98.161 29.9909 98.1423 29.89 98.144 29.7884V26.649C98.1423 26.5474 98.161 26.4466 98.1991 26.3524C98.2372 26.2582 98.2938 26.1726 98.3657 26.1008C98.4375 26.0289 98.5231 25.9723 98.6172 25.9342C98.7114 25.8961 98.8123 25.8774 98.9139 25.8791H116.102C116.314 25.8763 116.517 25.7906 116.667 25.6404C116.818 25.4902 116.903 25.2872 116.906 25.0748V21.9499C116.896 21.743 116.807 21.5479 116.657 21.4047C116.508 21.2615 116.309 21.1811 116.102 21.1799H102.836C102.218 21.1818 101.606 21.0616 101.035 20.8261C100.464 20.5906 99.9455 20.2446 99.5088 19.8078C99.0721 19.3711 98.726 18.8523 98.4906 18.2813C98.2551 17.7103 98.1348 17.0984 98.1367 16.4808V11.7816C98.1386 11.1664 98.2617 10.5576 98.4989 9.98993C98.736 9.42228 99.0827 8.90691 99.5191 8.47324C99.9554 8.03956 100.473 7.69609 101.042 7.46241C101.611 7.22874 102.221 7.10945 102.836 7.11135Z" fill="#222223"/>
<path d="M123.009 7.11143H144.927C145.028 7.10973 145.129 7.12847 145.223 7.16653C145.318 7.2046 145.403 7.26122 145.475 7.33303C145.547 7.40485 145.604 7.49039 145.642 7.58458C145.681 7.67878 145.7 7.77971 145.698 7.88137V11.0334C145.7 11.1351 145.681 11.236 145.642 11.3302C145.604 11.4244 145.547 11.51 145.475 11.5818C145.403 11.6536 145.318 11.7102 145.223 11.7483C145.129 11.7863 145.028 11.8051 144.927 11.8034H137.084C136.983 11.8017 136.882 11.8204 136.788 11.8585C136.694 11.8966 136.608 11.9532 136.536 12.0251C136.464 12.0969 136.408 12.1825 136.37 12.2767C136.332 12.3708 136.313 12.4717 136.315 12.5733V29.7994C136.316 29.9011 136.297 30.0021 136.259 30.0964C136.221 30.1907 136.164 30.2764 136.092 30.3483C136.02 30.4203 135.934 30.4771 135.84 30.5153C135.746 30.5536 135.645 30.5726 135.543 30.5711H132.393C132.291 30.5726 132.19 30.5536 132.096 30.5153C132.002 30.477 131.916 30.4202 131.844 30.3482C131.772 30.2762 131.716 30.1906 131.678 30.0963C131.64 30.002 131.621 29.901 131.623 29.7994V12.5733C131.624 12.4716 131.605 12.3707 131.567 12.2765C131.529 12.1823 131.472 12.0968 131.4 12.025C131.328 11.9532 131.242 11.8965 131.148 11.8585C131.054 11.8204 130.953 11.8017 130.851 11.8034H123.009C122.908 11.8041 122.808 11.7846 122.714 11.7461C122.621 11.7076 122.536 11.6508 122.465 11.5791C122.394 11.5073 122.338 11.4221 122.301 11.3284C122.263 11.2347 122.245 11.1344 122.246 11.0334V7.88137C122.245 7.78041 122.263 7.68012 122.301 7.58642C122.338 7.49272 122.394 7.40749 122.465 7.33575C122.536 7.26401 122.621 7.20721 122.714 7.16869C122.808 7.13016 122.908 7.1107 123.009 7.11143Z" fill="#222223"/>
<path d="M148.414 11.8027C148.414 10.5564 148.909 9.36113 149.79 8.47987C150.671 7.5986 151.866 7.10352 153.113 7.10352H167.188C168.434 7.10352 169.63 7.5986 170.511 8.47987C171.392 9.36113 171.887 10.5564 171.887 11.8027V29.7987C171.889 29.9003 171.87 30.0013 171.832 30.0956C171.794 30.1899 171.738 30.2756 171.666 30.3475C171.594 30.4195 171.508 30.4763 171.414 30.5146C171.32 30.5529 171.219 30.5719 171.117 30.5704H167.953C167.851 30.5721 167.75 30.5533 167.655 30.5152C167.561 30.477 167.475 30.4202 167.403 30.3482C167.331 30.2762 167.274 30.1904 167.236 30.096C167.198 30.0016 167.179 29.9005 167.181 29.7987V26.6484C167.183 26.5468 167.164 26.446 167.126 26.3518C167.088 26.2576 167.031 26.172 166.959 26.1002C166.887 26.0283 166.802 25.9717 166.708 25.9336C166.614 25.8955 166.513 25.8768 166.411 25.8785H153.877C153.775 25.8768 153.675 25.8955 153.58 25.9336C153.486 25.9716 153.4 26.0283 153.328 26.1001C153.256 26.1719 153.199 26.2574 153.161 26.3516C153.123 26.4458 153.104 26.5468 153.105 26.6484V29.7987C153.107 29.9003 153.088 30.0013 153.05 30.0956C153.012 30.1899 152.956 30.2756 152.884 30.3475C152.812 30.4195 152.726 30.4763 152.632 30.5146C152.538 30.5529 152.437 30.5719 152.335 30.5704H149.178C149.076 30.5719 148.975 30.5529 148.881 30.5146C148.787 30.4764 148.701 30.4196 148.629 30.3476C148.557 30.2757 148.5 30.19 148.462 30.0957C148.424 30.0014 148.405 29.9004 148.406 29.7987L148.414 11.8027ZM153.877 11.8027C153.775 11.801 153.675 11.8197 153.58 11.8578C153.486 11.8958 153.4 11.9525 153.328 12.0243C153.256 12.0961 153.199 12.1816 153.161 12.2758C153.123 12.37 153.104 12.471 153.105 12.5726V20.4148C153.104 20.5166 153.123 20.6176 153.161 20.7119C153.199 20.8061 153.256 20.8918 153.328 20.9638C153.4 21.0357 153.486 21.0925 153.58 21.1308C153.674 21.169 153.775 21.188 153.877 21.1865H166.411C166.513 21.188 166.614 21.169 166.708 21.1308C166.802 21.0925 166.888 21.0356 166.959 20.9637C167.031 20.8917 167.088 20.806 167.126 20.7117C167.164 20.6174 167.183 20.5165 167.181 20.4148V12.5726C167.183 12.471 167.164 12.3702 167.126 12.276C167.088 12.1818 167.031 12.0962 166.959 12.0244C166.887 11.9525 166.802 11.8959 166.708 11.8578C166.614 11.8197 166.513 11.801 166.411 11.8027H153.877Z" fill="#222223"/>
<path d="M125.113 46.3323C124.521 46.3349 123.937 46.1912 123.414 45.914C122.891 45.6368 122.444 45.2347 122.114 44.7433C121.783 44.2519 121.579 43.6866 121.52 43.0974C121.461 42.5083 121.548 41.9136 121.774 41.3663C122 40.8189 122.357 40.3358 122.815 39.9599C123.272 39.584 123.815 39.3269 124.396 39.2115C124.977 39.0961 125.577 39.1259 126.144 39.2984C126.71 39.4708 127.225 39.7804 127.643 40.1999C127.716 40.2695 127.773 40.353 127.813 40.4454C127.853 40.5377 127.874 40.6371 127.875 40.7377C127.876 40.8383 127.857 40.9381 127.819 41.0312C127.781 41.1243 127.724 41.2088 127.653 41.2798C127.582 41.3508 127.497 41.4069 127.404 41.4447C127.311 41.4825 127.211 41.5014 127.11 41.5001C127.01 41.4988 126.91 41.4775 126.818 41.4373C126.726 41.3972 126.643 41.339 126.573 41.2662C126.282 40.9747 125.911 40.7761 125.507 40.6955C125.103 40.615 124.684 40.656 124.304 40.8135C123.923 40.971 123.598 41.2379 123.369 41.5803C123.14 41.9228 123.018 42.3255 123.018 42.7374C123.018 43.1493 123.14 43.552 123.369 43.8945C123.598 44.2369 123.923 44.5038 124.304 44.6613C124.684 44.8188 125.103 44.8598 125.507 44.7793C125.911 44.6987 126.282 44.5001 126.573 44.2086C126.716 44.0699 126.907 43.993 127.107 43.9945C127.306 43.9961 127.496 44.0759 127.637 44.2168C127.777 44.3576 127.857 44.5482 127.858 44.7473C127.859 44.9463 127.782 45.1378 127.643 45.2804C127.315 45.6188 126.922 45.8867 126.486 46.0675C126.051 46.2484 125.584 46.3385 125.113 46.3323Z" fill="#222223"/>
<path d="M129.659 46.3326C129.56 46.333 129.461 46.3137 129.368 46.2758C129.276 46.2378 129.192 46.1819 129.122 46.1113C129.051 46.0407 128.995 45.9568 128.957 45.8645C128.919 45.7722 128.9 45.6733 128.9 45.5735V39.9019C128.91 39.7077 128.994 39.5246 129.135 39.3905C129.275 39.2564 129.462 39.1816 129.657 39.1816C129.851 39.1816 130.038 39.2564 130.179 39.3905C130.32 39.5246 130.404 39.7077 130.413 39.9019V44.8198H133.439C133.539 44.8181 133.639 44.8368 133.732 44.8747C133.825 44.9126 133.91 44.9689 133.981 45.0403C134.122 45.1828 134.202 45.3754 134.202 45.5762C134.202 45.7769 134.122 45.9696 133.981 46.1121C133.91 46.1835 133.825 46.2398 133.732 46.2777C133.639 46.3156 133.539 46.3342 133.439 46.3326H129.659Z" fill="#222223"/>
<path d="M135.898 46.3325C135.798 46.333 135.699 46.3137 135.607 46.2757C135.515 46.2377 135.431 46.1817 135.361 46.1111C135.29 46.0405 135.235 45.9566 135.197 45.8643C135.159 45.772 135.14 45.6731 135.141 45.5734V39.9019C135.142 39.7012 135.222 39.5089 135.363 39.3668C135.505 39.2247 135.697 39.1442 135.898 39.1428C135.999 39.1404 136.1 39.1593 136.193 39.1982C136.286 39.2371 136.371 39.2952 136.44 39.3687C136.513 39.4386 136.57 39.5229 136.609 39.6163C136.647 39.7097 136.665 39.81 136.662 39.9109V45.5824C136.663 45.682 136.644 45.7806 136.606 45.8727C136.568 45.9647 136.513 46.0484 136.442 46.119C136.372 46.1895 136.289 46.2455 136.197 46.2837C136.105 46.3219 136.006 46.3415 135.907 46.3415L135.898 46.3325Z" fill="#222223"/>
<path d="M141.767 41.6676L144.071 39.3668C144.176 39.2603 144.31 39.1868 144.456 39.1553C144.603 39.1269 144.755 39.1422 144.893 39.1994C145.032 39.2566 145.15 39.3531 145.234 39.4771C145.319 39.6014 145.365 39.749 145.364 39.9V45.5715C145.365 45.7218 145.322 45.869 145.239 45.9944C145.156 46.1199 145.038 46.2179 144.899 46.2761C144.761 46.3342 144.608 46.3498 144.461 46.3209C144.313 46.292 144.178 46.2199 144.071 46.1137C144 46.0432 143.943 45.9587 143.905 45.8654C143.867 45.7722 143.849 45.6722 143.851 45.5715V41.7254L142.297 43.2743C142.227 43.3447 142.143 43.4006 142.051 43.4387C141.96 43.4768 141.861 43.4964 141.762 43.4964C141.662 43.4964 141.564 43.4768 141.472 43.4387C141.38 43.4006 141.297 43.3447 141.227 43.2743L139.68 41.729V45.5751C139.685 45.6776 139.669 45.78 139.633 45.8761C139.597 45.9722 139.542 46.0601 139.472 46.1344C139.401 46.2086 139.316 46.2678 139.222 46.3082C139.127 46.3486 139.026 46.3694 138.923 46.3694C138.821 46.3694 138.719 46.3486 138.625 46.3082C138.531 46.2678 138.446 46.2086 138.375 46.1344C138.304 46.0601 138.249 45.9722 138.214 45.8761C138.178 45.78 138.162 45.6776 138.167 45.5751V39.9C138.166 39.749 138.212 39.6014 138.297 39.4771C138.379 39.3526 138.497 39.2554 138.635 39.1981C138.773 39.1408 138.924 39.1259 139.071 39.1553C139.218 39.1863 139.353 39.2598 139.459 39.3668L141.767 41.6676Z" fill="#222223"/>
<path d="M146.717 46.251C146.627 46.2087 146.546 46.148 146.481 46.0726C146.416 45.9973 146.367 45.909 146.338 45.8136C146.304 45.72 146.29 45.6206 146.296 45.5214C146.303 45.4222 146.33 45.3254 146.376 45.237L149.213 39.5601C149.277 39.4341 149.374 39.3279 149.493 39.2528C149.613 39.1802 149.751 39.142 149.891 39.1426C150.032 39.1422 150.17 39.1804 150.29 39.2528C150.409 39.3284 150.505 39.4346 150.569 39.5601L153.401 45.237C153.449 45.3245 153.477 45.4212 153.485 45.5206C153.492 45.6201 153.478 45.7199 153.444 45.8136C153.414 45.9084 153.365 45.9961 153.299 46.0713C153.234 46.1465 153.154 46.2076 153.065 46.251C152.961 46.3049 152.845 46.3328 152.728 46.3323C152.587 46.3325 152.449 46.2929 152.33 46.2181C152.21 46.1433 152.114 46.0363 152.052 45.9094L151.548 44.9027H148.23L147.733 45.9094C147.691 45.9997 147.631 46.0802 147.556 46.1456C147.48 46.211 147.393 46.2598 147.297 46.2889C147.203 46.3231 147.103 46.3374 147.003 46.3308C146.903 46.3243 146.806 46.2971 146.717 46.251ZM148.998 43.3971H150.805L149.902 41.5898L148.998 43.3971Z" fill="#222223"/>
<path d="M153.075 40.6554C152.975 40.6576 152.875 40.6391 152.782 40.6012C152.688 40.5633 152.604 40.5067 152.533 40.4349C152.428 40.3282 152.357 40.1928 152.328 40.0456C152.3 39.8985 152.316 39.7462 152.374 39.608C152.432 39.4698 152.529 39.3519 152.654 39.269C152.779 39.1862 152.926 39.1422 153.075 39.1426H157.8C157.95 39.1414 158.097 39.1848 158.223 39.2675C158.348 39.3502 158.446 39.4683 158.504 39.6069C158.562 39.7454 158.578 39.8981 158.549 40.0456C158.52 40.193 158.448 40.3285 158.342 40.4349C158.271 40.5063 158.187 40.5627 158.093 40.6006C158 40.6385 157.9 40.6572 157.8 40.6554H156.191V45.5732C156.192 45.6727 156.173 45.7712 156.135 45.8633C156.098 45.9554 156.043 46.0391 155.972 46.1097C155.902 46.1802 155.819 46.2362 155.727 46.2744C155.635 46.3127 155.537 46.3323 155.438 46.3323C155.337 46.3338 155.237 46.315 155.144 46.2771C155.051 46.2393 154.966 46.183 154.895 46.1118C154.824 46.0413 154.767 45.9568 154.729 45.8635C154.691 45.7703 154.673 45.6703 154.675 45.5696V40.6554H153.075Z" fill="#222223"/>
<path d="M163.961 40.7002C163.461 40.6894 162.964 40.6109 162.485 40.4671C162.031 40.3185 161.553 40.2572 161.077 40.2863C160.813 40.3146 160.553 40.3753 160.303 40.4671C160.22 40.5059 160.13 40.527 160.038 40.5292C159.947 40.5314 159.856 40.5145 159.771 40.4797C159.686 40.4448 159.609 40.3928 159.546 40.3268C159.482 40.2609 159.432 40.1824 159.401 40.0964C159.369 40.0104 159.355 39.9187 159.361 39.8272C159.366 39.7356 159.39 39.6462 159.432 39.5645C159.474 39.4829 159.532 39.4107 159.603 39.3526C159.674 39.2946 159.756 39.2519 159.844 39.2272C160.198 39.0971 160.566 39.0121 160.941 38.9742C161.573 38.9248 162.207 38.996 162.812 39.1838C163.271 39.3344 163.755 39.3957 164.238 39.3646C164.469 39.3414 164.697 39.2935 164.918 39.2218C165.085 39.1676 165.268 39.1823 165.425 39.2627C165.582 39.343 165.7 39.4824 165.754 39.6501C165.808 39.8179 165.794 40.0003 165.713 40.1573C165.633 40.3142 165.494 40.4328 165.326 40.487C165.014 40.5862 164.692 40.6528 164.366 40.6858C164.229 40.693 164.092 40.7002 163.961 40.7002Z" fill="#222223"/>
<path d="M163.958 43.6101C163.458 43.5989 162.962 43.5211 162.482 43.3787C162.029 43.2276 161.551 43.1662 161.074 43.198C160.81 43.2253 160.55 43.286 160.3 43.3787C160.218 43.4156 160.128 43.4352 160.037 43.4361C159.946 43.437 159.857 43.4193 159.773 43.3841C159.689 43.3489 159.614 43.2968 159.551 43.2313C159.488 43.1657 159.44 43.0879 159.408 43.0028C159.377 42.9177 159.363 42.8271 159.368 42.7365C159.373 42.6459 159.397 42.5573 159.437 42.4761C159.478 42.395 159.535 42.323 159.604 42.2647C159.674 42.2064 159.754 42.1629 159.841 42.1371C160.195 42.007 160.564 41.922 160.938 41.884C161.57 41.8351 162.205 41.9069 162.809 42.0955C163.269 42.2454 163.753 42.3067 164.235 42.2762C164.466 42.2528 164.693 42.2055 164.915 42.1352C165.082 42.0811 165.265 42.0958 165.422 42.1761C165.579 42.2564 165.697 42.3958 165.751 42.5636C165.806 42.7314 165.791 42.9138 165.71 43.0707C165.63 43.2276 165.491 43.3462 165.323 43.4004C165.011 43.5013 164.689 43.5679 164.363 43.5992C164.229 43.6096 164.094 43.6132 163.958 43.6101Z" fill="#222223"/>
<path d="M163.959 46.5265C163.458 46.5162 162.961 46.4384 162.482 46.2952C162.028 46.1458 161.551 46.0844 161.074 46.1145C160.81 46.1418 160.55 46.2026 160.3 46.2952C160.219 46.325 160.132 46.3384 160.045 46.3345C159.958 46.3307 159.872 46.3098 159.793 46.273C159.714 46.2361 159.643 46.1841 159.584 46.1198C159.526 46.0556 159.48 45.9804 159.45 45.8985C159.42 45.8166 159.407 45.7296 159.411 45.6426C159.415 45.5555 159.436 45.4701 159.472 45.3911C159.509 45.3122 159.561 45.2412 159.625 45.1824C159.69 45.1235 159.765 45.0779 159.847 45.0481C160.2 44.9177 160.569 44.8333 160.944 44.7969C161.575 44.7466 162.21 44.8178 162.814 45.0065C163.274 45.1563 163.758 45.2176 164.24 45.1873C164.471 45.1647 164.699 45.1174 164.92 45.0463C165.003 45.0195 165.091 45.0093 165.178 45.0163C165.265 45.0233 165.349 45.0474 165.427 45.0872C165.505 45.1269 165.574 45.1816 165.631 45.2481C165.687 45.3146 165.73 45.3916 165.757 45.4747C165.784 45.5577 165.794 45.6453 165.787 45.7323C165.78 45.8193 165.756 45.9041 165.716 45.9818C165.676 46.0595 165.622 46.1286 165.555 46.1852C165.489 46.2417 165.412 46.2846 165.328 46.3115C165.017 46.4123 164.695 46.479 164.369 46.5103C164.232 46.5226 164.095 46.528 163.959 46.5265Z" fill="#222223"/>
<path d="M163.456 54.6272H125.914C124.648 54.6272 123.631 53.3096 123.631 51.6884V51.4661C123.631 49.8395 124.656 48.5273 125.914 48.5273H163.456C164.721 48.5273 165.736 49.8449 165.736 51.4661V51.6884C165.738 53.3096 164.721 54.6272 163.456 54.6272ZM125.914 50.3564C125.438 50.3564 125.051 50.8534 125.051 51.4661V51.6884C125.051 52.3011 125.438 52.7982 125.914 52.7982H163.456C163.929 52.7982 164.316 52.3011 164.316 51.6884V51.4661C164.316 50.8534 163.929 50.3564 163.456 50.3564H125.914Z" fill="#222223"/>
<path d="M114.779 45.5907V48.7373H4.31034C3.85055 48.7307 3.41173 48.5438 3.08827 48.217C2.76482 47.8902 2.58256 47.4494 2.58071 46.9896V36.3062C2.58071 31.7661 2.56445 27.2278 2.58071 22.6877C2.58071 21.5653 2.81025 20.6381 3.2169 19.9369C3.58416 19.2782 4.18429 18.7806 4.89953 18.5416C5.85562 18.2271 7.03942 18.3355 8.38589 18.9193C12.5789 20.7267 16.7629 22.5792 20.9523 24.4047L21.2975 24.5565L21.3752 24.5908C23.3109 25.4295 24.0393 24.9433 24.0501 22.8015C24.0628 20.4863 24.0104 18.1656 24.0664 15.8504C24.1206 13.6309 23.1031 12.2501 21.0915 11.388C16.3075 9.34566 11.5487 7.23285 6.77917 5.14172H6.76832C6.68284 5.10407 6.60596 5.04933 6.54241 4.98086L6.67615 5.04051C6.58943 4.9961 6.51259 4.93462 6.45023 4.85977C6.47583 4.90269 6.50681 4.94217 6.54241 4.97725C4.7929 4.21454 3.88923 4.78025 3.87839 6.82619C3.87839 8.21606 3.88742 10.7283 3.88923 13.0092C3.88996 14.1437 3.56463 15.2546 2.95198 16.2094C2.33933 17.1643 1.46518 17.923 0.433594 18.3952C0.487814 15.0714 0.417328 8.67874 0.460704 5.3586C0.511309 1.5812 2.83374 0.0810828 6.33998 1.58843C9.45945 2.92227 12.5627 4.29949 15.6695 5.65501C16.7852 6.14541 17.9033 6.63461 19.0239 7.1226L18.9661 7.11175C20.712 7.87326 22.4591 8.62693 24.2074 9.37277C24.8639 9.63744 25.4684 10.0162 25.993 10.4915C26.0029 10.499 26.012 10.5075 26.0201 10.5168C27.0358 11.4205 27.5274 12.6477 27.5021 14.278C27.4479 17.609 27.5184 20.9418 27.475 24.2745C27.4244 28.07 25.093 29.5647 21.5759 28.0574C17.3214 26.2355 13.0958 24.3523 8.85219 22.5069C6.66892 21.5545 5.96044 22.0316 5.96044 24.4462C5.96044 30.031 5.96044 39.3986 5.96044 45.1967C5.96092 45.301 6.00258 45.401 6.07637 45.4747C6.15015 45.5485 6.25009 45.5902 6.35444 45.5907H114.779Z" fill="url(#paint0_linear_592_4250)"/>
<path d="M6.67904 5.04236L6.5453 4.98271C6.5097 4.94763 6.47873 4.90816 6.45312 4.86523C6.51583 4.93878 6.59265 4.99901 6.67904 5.04236Z" fill="#46B5E9"/>
<path d="M6.67904 5.04236L6.5453 4.98271C6.50887 4.94838 6.4778 4.90878 6.45312 4.86523C6.51515 4.93949 6.59213 4.99984 6.67904 5.04236Z" fill="#46B5E9"/>
<path d="M33.1449 23.0754C33.1449 26.063 32.6985 26.5618 29.8302 27.0082C29.8302 22.3362 29.8067 17.7274 29.841 13.1168C29.8537 11.0401 28.988 9.65927 27.0614 8.83691C22.5864 6.92833 18.1439 4.9601 13.6834 3.01356H13.6672C13.5063 2.94444 13.3699 2.82876 13.2754 2.68141C13.1809 2.53406 13.1327 2.36179 13.137 2.1868C13.1413 2.01181 13.1978 1.8421 13.2994 1.69955C13.401 1.55699 13.5429 1.44811 13.7069 1.38693C14.9178 0.929665 16.0565 0.759772 17.4409 1.43031C21.5978 3.44552 25.8902 5.18602 30.1411 7.00243C32.2087 7.88623 33.1449 9.42792 33.1449 11.6474C33.1304 15.4519 33.1449 19.2618 33.1449 23.0754Z" fill="#2EB0E5"/>
<path d="M114.782 40.6608V43.8074H10.1369C9.69882 43.8003 9.28107 43.6215 8.97349 43.3095C8.6659 42.9976 8.49308 42.5773 8.49219 42.1392V25.0306C8.69461 25.0017 8.74883 24.9782 8.79221 24.9927C11.6406 25.9343 11.6406 25.9343 11.6406 28.8785C11.6406 32.2258 11.6406 36.6141 11.6406 40.0842C11.6411 40.2354 11.7014 40.3802 11.8085 40.4869C11.9155 40.5936 12.0605 40.6535 12.2117 40.6535L114.782 40.6608Z" fill="#2EB0E5"/>
<path d="M22.5827 17.6239C22.5607 18.3067 22.3423 18.9687 21.9538 19.5306C21.8359 19.7099 21.6908 19.8696 21.5236 20.0042C21.4667 20.0468 21.3999 20.0744 21.3295 20.0845C21.2591 20.0946 21.1872 20.0869 21.1206 20.062C21.0545 20.0428 20.9972 20.001 20.9589 19.9438C20.9205 19.8866 20.9036 19.8178 20.911 19.7493C20.9203 19.4593 20.8844 19.1697 20.8043 18.8908C20.7012 18.5227 20.5261 18.1787 20.2892 17.8787C20.2269 17.9106 20.1607 17.9343 20.0922 17.9492C19.9828 17.9755 19.8835 18.0333 19.8067 18.1155C19.7904 18.1281 19.7904 18.1534 19.7814 18.1751C19.7723 18.1968 19.7651 18.2094 19.7597 18.2094C19.6928 18.2094 19.7018 18.2582 19.7073 18.3016C19.731 18.8052 19.7074 19.3098 19.6368 19.809C19.6241 19.968 19.6006 20.1216 19.5789 20.2771C19.569 20.3499 19.5438 20.4198 19.5048 20.4821C19.4659 20.5444 19.4141 20.5977 19.353 20.6385C19.0395 20.8469 18.6738 20.9634 18.2975 20.9747C17.92 20.9894 17.5431 20.9336 17.186 20.8102C16.5608 20.6105 15.9996 20.2488 15.5594 19.762C15.4615 19.656 15.3914 19.5275 15.3552 19.3878C15.3447 19.3434 15.3442 19.2972 15.3539 19.2525C15.3635 19.2079 15.3829 19.1659 15.4108 19.1298C15.4387 19.0936 15.4743 19.0641 15.515 19.0434C15.5557 19.0227 15.6005 19.0113 15.6462 19.0101C16.029 19.0547 16.4169 19.0044 16.7758 18.8637C17.1547 18.7024 17.4907 18.4548 17.7571 18.1408C17.8186 18.0811 17.8746 18.0197 17.9379 17.9456C17.8276 17.9275 17.7355 17.9112 17.6415 17.8913C17.5475 17.8715 17.486 17.8534 17.4101 17.8371C17.3613 17.8204 17.31 17.8118 17.2583 17.8118C16.829 17.8454 16.397 17.8144 15.9769 17.7196C15.7185 17.6672 15.4618 17.6184 15.2052 17.5606C15.0932 17.5289 14.9894 17.4734 14.9008 17.3979C14.8123 17.3224 14.741 17.2287 14.6919 17.1232C14.4023 16.5985 14.2859 15.9956 14.3593 15.4008C14.4186 14.7129 14.6866 14.0596 15.1275 13.5284C15.2115 13.4003 15.329 13.2978 15.4672 13.2319C15.5228 13.2098 15.5823 13.1995 15.6421 13.2017C15.7018 13.2039 15.7605 13.2185 15.8142 13.2446C15.8673 13.2668 15.9118 13.3055 15.9411 13.355C15.9704 13.4045 15.9829 13.4621 15.9769 13.5193C15.9685 13.8578 16.0205 14.195 16.1305 14.5152C16.3194 15.0394 16.629 15.5118 17.0342 15.8942C17.0794 15.943 17.1282 15.9954 17.177 16.0442C17.2019 16.0661 17.2285 16.086 17.2565 16.1039C17.2981 16.0189 17.3396 15.9448 17.3758 15.8617C17.3826 15.8356 17.3826 15.8082 17.3758 15.7821C17.2924 15.4266 17.2493 15.0629 17.2475 14.6977C17.2637 14.3959 17.2963 14.0959 17.3252 13.794C17.3451 13.5717 17.3812 13.3512 17.4047 13.1307C17.4144 13.0263 17.4497 12.9258 17.5073 12.8382C17.565 12.7506 17.6434 12.6785 17.7355 12.6283C18.1963 12.3579 18.7408 12.2671 19.2645 12.3734C20.0495 12.5091 20.7665 12.9035 21.3013 13.494C21.3698 13.562 21.4216 13.6447 21.453 13.7359C21.4843 13.8271 21.4943 13.9243 21.4821 14.02C21.4798 14.0521 21.4711 14.0835 21.4566 14.1123C21.442 14.1411 21.4218 14.1666 21.3973 14.1875C21.3727 14.2084 21.3442 14.2241 21.3134 14.2339C21.2827 14.2436 21.2503 14.247 21.2182 14.2441C20.7836 14.192 20.3433 14.27 19.9531 14.4682C19.6538 14.6228 19.3859 14.8318 19.1633 15.0845C19.0855 15.1713 19.0042 15.2526 18.9247 15.3375C18.8452 15.4225 18.8687 15.4279 18.9518 15.4893C19.0009 15.5223 19.0564 15.5443 19.1147 15.554C19.173 15.5636 19.2327 15.5607 19.2898 15.5454C19.891 15.445 20.5064 15.4709 21.0971 15.6213C21.3176 15.6737 21.5399 15.7153 21.7586 15.7605C21.8548 15.7814 21.9454 15.8227 22.0243 15.8816C22.1032 15.9406 22.1685 16.0157 22.2158 16.102C22.4881 16.561 22.6159 17.0913 22.5827 17.6239Z" fill="#222223"/>
<path d="M166.063 54.924H121.15C117.639 54.924 114.783 52.2599 114.783 48.9831V40.474C114.783 37.1973 117.639 34.5332 121.15 34.5332H166.063C169.575 34.5332 172.43 37.1973 172.43 40.474V48.9831C172.43 52.2599 169.575 54.924 166.063 54.924ZM121.15 36.308C118.691 36.308 116.688 38.1751 116.688 40.465V48.9741C116.688 51.2695 118.691 53.131 121.15 53.131H166.063C168.524 53.131 170.525 51.264 170.525 48.9741V40.474C170.525 38.1787 168.524 36.3171 166.063 36.3171L121.15 36.308Z" fill="#222223"/>
<path d="M12.0777 11.0109C12.0784 11.1179 12.0579 11.224 12.0175 11.3231C11.977 11.4222 11.9174 11.5123 11.8419 11.5882C11.7665 11.6641 11.6768 11.7244 11.578 11.7655C11.4792 11.8066 11.3732 11.8278 11.2662 11.8278C11.2054 11.8278 11.1448 11.8211 11.0855 11.8079L10.8107 11.6905C9.31547 11.0458 7.82743 10.3964 6.34661 9.74211L6.09178 9.63186C5.94572 9.53568 5.83463 9.39489 5.77507 9.23046C5.71551 9.06603 5.71067 8.88675 5.76125 8.71935C5.81184 8.55194 5.91516 8.40535 6.05581 8.30142C6.19646 8.19749 6.36693 8.14178 6.54181 8.14259C6.64266 8.1425 6.74262 8.16151 6.8364 8.19861L6.93942 8.24741C8.42867 8.93602 9.94322 9.58125 11.4596 10.2211L11.7 10.3223C11.8159 10.3958 11.9114 10.4976 11.9775 10.618C12.0435 10.7384 12.078 10.8735 12.0777 11.0109Z" fill="#222223"/>
<path d="M12.0769 13.763C12.0769 13.9782 11.9914 14.1846 11.8392 14.3368C11.687 14.489 11.4806 14.5745 11.2654 14.5745C11.2046 14.5745 11.144 14.5678 11.0847 14.5546L10.81 14.4372C9.3189 13.7974 7.83146 13.1467 6.34582 12.496L6.09099 12.384C5.94575 12.2875 5.83544 12.1468 5.77642 11.9827C5.7174 11.8187 5.71279 11.6399 5.76329 11.473C5.81378 11.3061 5.91669 11.1599 6.05677 11.0561C6.19685 10.9523 6.36665 10.8963 6.54102 10.8965C6.64195 10.8955 6.74209 10.9146 6.83561 10.9526L6.93863 11.0013C8.42788 11.6936 9.94243 12.3352 11.457 12.975L11.6974 13.0762C11.8135 13.1493 11.9093 13.2506 11.9757 13.3707C12.042 13.4908 12.0769 13.6258 12.0769 13.763Z" fill="#222223"/>
<path d="M12.0774 16.5124C12.0774 16.7276 11.9919 16.934 11.8397 17.0862C11.6875 17.2384 11.4811 17.3239 11.2659 17.3239C11.205 17.3248 11.1443 17.3181 11.0851 17.304L10.8104 17.1865C9.31514 16.5455 7.8271 15.8979 6.34628 15.2436L6.09145 15.1334C5.942 15.0385 5.82766 14.8974 5.76588 14.7315C5.70409 14.5656 5.69824 14.384 5.74922 14.2145C5.8002 14.045 5.90521 13.8968 6.04824 13.7925C6.19128 13.6882 6.36449 13.6336 6.54148 13.6369C6.64233 13.6368 6.74229 13.6558 6.83607 13.6929L6.93909 13.7417C8.42834 14.4429 9.94289 15.0828 11.4592 15.7244L11.6996 15.8256C11.8156 15.8987 11.9111 16.0001 11.9771 16.1202C12.0432 16.2404 12.0777 16.3753 12.0774 16.5124Z" fill="#222223"/>
</g>
<defs>
<linearGradient id="paint0_linear_592_4250" x1="0.433594" y1="24.8735" x2="114.779" y2="24.8735" gradientUnits="userSpaceOnUse">
<stop stop-color="#EB3349"/>
<stop offset="1" stop-color="#F45C43"/>
</linearGradient>
<clipPath id="clip0_592_4250">
<rect width="172" height="53.9392" fill="white" transform="translate(0.429688 0.984375)"/>
</clipPath>
</defs>
</svg>
