<svg width="29" height="29" viewBox="0 0 29 29" fill="none" xmlns="http://www.w3.org/2000/svg">
<path d="M20.75 28.5007C9.58437 28.5007 0.5 19.4163 0.5 8.25068C0.504222 6.33545 1.20379 4.48692 2.46864 3.04876C3.73349 1.61061 5.47755 0.680704 7.37656 0.431932C7.86066 0.378257 8.34927 0.480179 8.77153 0.722918C9.1938 0.965657 9.52776 1.33659 9.725 1.78193L12.5516 8.37725C12.6982 8.71958 12.757 9.09312 12.7226 9.46395C12.6882 9.83477 12.5617 10.1911 12.3547 10.5007L10.0203 14.0726C11.0774 16.2178 12.8191 17.9496 14.9703 18.9944L18.5 16.646C18.8092 16.4376 19.1665 16.3114 19.538 16.2794C19.9096 16.2474 20.2831 16.3107 20.6234 16.4632L27.2188 19.2757C27.6641 19.4729 28.035 19.8069 28.2778 20.2292C28.5205 20.6514 28.6224 21.14 28.5688 21.6241C28.32 23.5231 27.3901 25.2672 25.9519 26.532C24.5138 27.7969 22.6652 28.4965 20.75 28.5007ZM7.65781 2.66787C6.30071 2.84232 5.05373 3.50545 4.15034 4.53309C3.24694 5.56073 2.74909 6.88241 2.75 8.25068C2.75372 13.0234 4.65134 17.5996 8.02619 20.9745C11.401 24.3493 15.9772 26.247 20.75 26.2507C22.1183 26.2516 23.44 25.7537 24.4676 24.8503C25.4952 23.947 26.1584 22.7 26.3328 21.3429L19.7375 18.5304L16.2219 20.8788C15.8984 21.0927 15.5251 21.2193 15.1383 21.2464C14.7515 21.2735 14.3642 21.2001 14.0141 21.0335C11.3941 19.7662 9.2749 17.6568 7.99531 15.0429C7.8266 14.6939 7.7509 14.3073 7.77554 13.9205C7.80017 13.5337 7.92432 13.1598 8.13594 12.8351L10.4844 9.26318L7.65781 2.66787Z" fill="#69AEFF"/>
</svg>
