<svg width="12" height="20" viewBox="0 0 12 20" fill="none" xmlns="http://www.w3.org/2000/svg"><path d="M9.12578 19.1004L0.700781 10.7004C0.600781 10.6004 0.530114 10.4921 0.488781 10.3754C0.446781 10.2587 0.425781 10.1337 0.425781 10.0004C0.425781 9.86706 0.446781 9.74206 0.488781 9.62539C0.530114 9.50872 0.600781 9.40039 0.700781 9.30039L9.12578 0.875391C9.35911 0.642057 9.65078 0.525391 10.0008 0.525391C10.3508 0.525391 10.6508 0.650391 10.9008 0.900391C11.1508 1.15039 11.2758 1.44206 11.2758 1.77539C11.2758 2.10872 11.1508 2.40039 10.9008 2.65039L3.55078 10.0004L10.9008 17.3504C11.1341 17.5837 11.2508 17.8711 11.2508 18.2124C11.2508 18.5544 11.1258 18.8504 10.8758 19.1004C10.6258 19.3504 10.3341 19.4754 10.0008 19.4754C9.66745 19.4754 9.37578 19.3504 9.12578 19.1004Z" fill="white"/></svg>
