<svg width="31" height="31" viewBox="0 0 31 31" fill="none" xmlns="http://www.w3.org/2000/svg">
<path d="M24.0465 21.9255L30.471 28.3485L28.3485 30.471L21.9255 24.0465C19.5356 25.9623 16.563 27.0044 13.5 27C6.048 27 0 20.952 0 13.5C0 6.048 6.048 0 13.5 0C20.952 0 27 6.048 27 13.5C27.0044 16.563 25.9623 19.5356 24.0465 21.9255ZM21.0375 20.8125C22.9412 18.8548 24.0043 16.2306 24 13.5C24 7.698 19.3005 3 13.5 3C7.698 3 3 7.698 3 13.5C3 19.3005 7.698 24 13.5 24C16.2306 24.0043 18.8548 22.9412 20.8125 21.0375L21.0375 20.8125Z" fill="white"/>
</svg>
