<svg width="20" height="20" viewBox="0 0 20 20" fill="none" xmlns="http://www.w3.org/2000/svg">
<path d="M7.92741 7.02985L10 1.97647L12.0726 7.02986C12.2521 7.46765 12.6635 7.76652 13.1354 7.80201L18.5819 8.21158L14.4163 11.7443C14.0554 12.0504 13.8983 12.534 14.0104 12.9937L15.3039 18.3002L10.6568 15.4302C10.2542 15.1815 9.74576 15.1815 9.34317 15.4302L4.6961 18.3002L5.98965 12.9937C6.10171 12.534 5.94458 12.0504 5.5837 11.7443L5.09861 12.3163L5.5837 11.7443L1.41812 8.21158L6.86463 7.80201C7.33649 7.76652 7.74785 7.46765 7.92741 7.02985ZM15.4483 18.8924C15.4482 18.8922 15.4481 18.8919 15.4481 18.8917L15.4483 18.8924Z" stroke="#69AEFF" stroke-width="1.5"/>
</svg>
