<svg width="20" height="20" viewBox="0 0 20 20" fill="none" xmlns="http://www.w3.org/2000/svg">
<path d="M9.5374 1.12792C9.70707 0.714225 10.2929 0.714226 10.4626 1.12792L12.7665 6.74526C12.8383 6.92037 13.0029 7.03993 13.1916 7.05412L19.246 7.5094C19.6918 7.54293 19.8729 8.10012 19.5319 8.38932L14.9014 12.3163C14.757 12.4387 14.6942 12.6322 14.739 12.8161L16.1769 18.7148C16.2828 19.1492 15.8088 19.4935 15.4284 19.2586L10.2627 16.0683C10.1017 15.9688 9.8983 15.9688 9.73727 16.0683L4.57159 19.2586C4.19116 19.4935 3.71719 19.1492 3.82308 18.7148L5.26098 12.8161C5.30581 12.6322 5.24296 12.4387 5.09861 12.3163L0.46814 8.38932C0.127128 8.10012 0.308169 7.54293 0.754044 7.5094L6.80839 7.05412C6.99713 7.03993 7.16168 6.92037 7.2335 6.74526L9.5374 1.12792Z" fill="#69AEFF"/>
</svg>
