<svg width="34" height="30" viewBox="0 0 34 30" fill="none" xmlns="http://www.w3.org/2000/svg">
<path d="M29.6227 2.10938C29.6026 2.10938 29.5824 2.10986 29.5623 2.11083C29.1986 2.12842 28.8417 2.21504 28.5107 2.36591L3.97284 11.8306L3.95935 11.8359C3.45922 12.0355 3.00716 12.2843 2.6519 12.5966C2.30582 12.9007 1.95056 13.3584 1.88666 13.9693C1.81743 14.6313 2.11862 15.1724 2.5009 15.528C2.8561 15.8583 3.30725 16.0644 3.75088 16.1952L9.87212 18.131C10.0959 18.2044 10.3332 18.2273 10.5671 18.1981C10.8031 18.1686 11.0295 18.0866 11.2298 17.9583L17.061 14.2794L13.4942 17.5005C13.3293 17.6352 13.1937 17.8028 13.0961 17.9928L13.0961 17.9928C12.9837 18.2118 12.9251 18.4545 12.9251 18.7006C12.9251 18.9468 12.9837 19.1894 13.0961 19.4084C13.2067 19.6239 13.3662 19.8104 13.5618 19.953L23.5401 27.3224C23.5828 27.3539 23.6275 27.3827 23.6739 27.4086C24.4059 27.8168 25.3591 28.0991 26.2809 27.6831C27.2064 27.2654 27.6343 26.3552 27.8158 25.4872C27.816 25.4863 27.8162 25.4855 27.8164 25.4846L31.9965 5.78271C32.2149 4.88222 32.1662 3.97962 31.7117 3.24873C31.2355 2.48271 30.4365 2.10938 29.6227 2.10938Z" stroke="#69AEFF" stroke-width="2.5" stroke-linecap="round" stroke-linejoin="round"/>
</svg>
