<svg width="7" height="6" viewBox="0 0 7 6" fill="none" xmlns="http://www.w3.org/2000/svg">
<path d="M0.781148 0.858645C0.838568 0.758633 0.921431 0.675596 1.02132 0.617967C1.12121 0.560337 1.23458 0.530167 1.3499 0.53052L6.1624 0.53052C6.27772 0.530088 6.39111 0.560183 6.49104 0.617747C6.59097 0.675311 6.67389 0.758296 6.73138 0.858272C6.78887 0.958249 6.81887 1.07166 6.81835 1.18698C6.81783 1.30231 6.7868 1.41544 6.72841 1.51489L4.3249 5.67114C4.26736 5.77111 4.18449 5.85413 4.08464 5.91187C3.98479 5.9696 3.87149 6 3.75615 6C3.64081 6 3.52751 5.9696 3.42766 5.91187C3.32781 5.85413 3.24494 5.77111 3.1874 5.67114L0.783883 1.51489C0.725054 1.41565 0.693785 1.30251 0.693304 1.18714C0.692823 1.07178 0.723149 0.958373 0.781148 0.858645Z" fill="#373737"/>
</svg>
