<svg width="620" height="275" viewBox="0 0 620 275" fill="none" xmlns="http://www.w3.org/2000/svg">
<path d="M10 181.75V151.75L95.25 38H140.5V148.75H160.5V181.75H140.5V213H103V181.75H10ZM53.5 148.75H103V82.75L53.5 148.75Z" fill="#69AEFF"/>
<path d="M454 181.75V151.75L539.25 38H584.5V148.75H604.5V181.75H584.5V213H547V181.75H454ZM497.5 148.75H547V82.75L497.5 148.75Z" fill="#69AEFF"/>
<path d="M345 67.0003L310.5 97.9997L276 67V97.9997L310.5 129L345 97.9997V67.0003Z" fill="#69AEFF"/>
<path d="M276 208L310.5 177L345 208V177L310.5 146L276 177V208Z" fill="#69AEFF"/>
<path d="M240 103L271 137.5L240 172H271L302 137.5L271 103H240Z" fill="#69AEFF"/>
<path d="M381 172L350 137.5L381 103H350L319 137.5L350 172H381Z" fill="#82D42A"/>
</svg>
